<svg width="63" height="16" viewBox="0 0 63 16" fill="none" xmlns="http://www.w3.org/2000/svg">
<path d="M26.1309 15.5774V5.40152H26.0556L21.9852 15.5774H20.4023L16.3319 5.40152H16.2566V15.5774H14.3721V1.78343H16.7842L21.1561 12.7885H21.2314L25.6033 1.78343H28.0907V15.5774H26.1309ZM38.7189 15.5774H36.7591V13.8437H36.6837C36.1561 15.0498 35.1008 15.7281 33.5933 15.7281C31.4073 15.7281 30.1259 14.296 30.1259 11.9593V5.47689H32.1611V11.5824C32.1611 13.09 32.9149 13.9191 34.2716 13.9191C35.7792 13.9191 36.6083 12.8638 36.6083 11.2809V5.47689H38.6435L38.7189 15.5774ZM44.2968 5.32614C46.6335 5.32614 48.0656 6.60755 48.141 8.49197H46.2566C46.1058 7.51207 45.4274 6.90905 44.2968 6.90905C43.1661 6.90905 42.4123 7.43669 42.4123 8.26584C42.4123 8.86885 42.8646 9.32111 43.9199 9.54725L45.5028 9.92413C47.538 10.3764 48.2917 11.2055 48.2917 12.6377C48.2917 14.4467 46.6335 15.7281 44.2968 15.7281C41.8093 15.7281 40.3018 14.5221 40.151 12.5623H42.1862C42.337 13.6176 43.0907 14.1452 44.2968 14.1452C45.5028 14.1452 46.2566 13.6176 46.2566 12.7885C46.2566 12.1101 45.8797 11.7332 44.8244 11.507L43.2415 11.1302C41.3571 10.6779 40.4526 9.77338 40.4526 8.26584C40.4526 6.53217 41.9601 5.32614 44.2968 5.32614ZM49.7993 2.8387C49.7993 2.16031 50.3269 1.63267 51.0053 1.63267C51.6837 1.63267 52.2113 2.16031 52.2113 2.8387C52.2113 3.51709 51.6837 4.04473 51.0053 4.04473C50.3269 4.04473 49.7993 3.51709 49.7993 2.8387ZM49.95 5.47689H51.9852V15.5774H49.95V5.47689ZM60.5782 8.94423C60.352 7.88895 59.5983 6.98443 58.2415 6.98443C56.6586 6.98443 55.6033 8.34122 55.6033 10.4518C55.6033 12.6377 56.6586 13.9191 58.2415 13.9191C59.5229 13.9191 60.2767 13.2407 60.5782 12.0347H62.538C62.3118 14.1452 60.6536 15.6528 58.2415 15.6528C55.3772 15.6528 53.5681 13.693 53.5681 10.4518C53.5681 7.28594 55.3772 5.25076 58.2415 5.25076C60.8043 5.25076 62.3118 6.90905 62.538 8.86885L60.5782 8.94423ZM8.11586 3.14021C7.58823 3.74322 6.75908 4.27086 5.92994 4.19549C5.77918 3.29096 6.23144 2.38644 6.6837 1.8588C7.21134 1.18041 8.11586 0.728149 8.86963 0.728149C8.94501 1.5573 8.6435 2.46182 8.11586 3.14021ZM8.86963 4.34624C9.3219 4.34624 10.6787 4.49699 11.5832 5.85378C11.5078 5.92915 10.0003 6.83368 10.0003 8.7181C10.0003 10.9794 11.9601 11.7332 11.9601 11.7332C11.9601 11.8086 11.6586 12.7885 10.9802 13.8437C10.3772 14.7482 9.69878 15.6528 8.71888 15.6528C7.73898 15.6528 7.43747 15.0498 6.30682 15.0498C5.17617 15.0498 4.79928 15.6528 3.89476 15.6528C2.91486 15.6528 2.16109 14.6729 1.55808 13.7684C0.276668 11.8839 -0.703231 8.49197 0.653553 6.23066C1.25657 5.10001 2.4626 4.34624 3.66863 4.34624C4.64853 4.34624 5.55305 5.02463 6.08069 5.02463C6.60833 5.02463 7.6636 4.27086 8.86963 4.34624Z" fill="black"/>
</svg>
