<svg width="72" height="25" viewBox="0 0 72 25" fill="none" xmlns="http://www.w3.org/2000/svg">
<path fill-rule="evenodd" clip-rule="evenodd" d="M31.8176 7.60455V16.8042H37.4595C39.0367 16.8042 40.242 15.7134 40.3061 14.1363C40.3702 12.9272 39.806 12.2175 38.7418 11.797C39.447 11.5473 39.8317 10.8639 39.8445 10.1279C39.883 8.76108 38.8187 7.60455 37.4852 7.60455H31.8176ZM35.3182 13.1244H36.1901C36.6517 13.1244 36.8312 13.4135 36.8312 13.7026C36.8312 13.9918 36.6389 14.2809 36.1901 14.2809H35.3182V13.1244ZM35.3182 10.0622H35.9721C36.6132 10.0622 36.5748 11.0216 35.9721 11.0216H35.3182V10.0622ZM40.7811 12.1781C40.8067 18.5916 50.4749 18.5259 50.5005 12.1781C50.4749 5.75147 40.8067 5.73832 40.7811 12.1781ZM44.2432 12.165C44.256 10.0227 46.9872 10.0227 47 12.165C46.9872 14.2809 44.256 14.294 44.2432 12.165ZM51.1294 12.1781C51.155 18.5916 60.8232 18.5259 60.8488 12.1781C60.8232 5.75147 51.155 5.73832 51.1294 12.1781ZM54.5914 12.165C54.6043 10.0227 57.3355 10.0227 57.3483 12.165C57.3355 14.2809 54.6043 14.294 54.5914 12.165ZM64.5679 12.6249L65.9142 14.754H67.1452L68.4916 12.6249L68.2479 14.754V16.8042H71.6972V7.60455H68.3249L66.5297 10.233L64.7346 7.60455H61.3494V16.8042H64.8115V14.754L64.5679 12.6249Z" fill="black"/>
<path fill-rule="evenodd" clip-rule="evenodd" d="M12.4391 24.1568C5.79368 24.1568 0.406494 18.7784 0.406494 12.1438C0.406494 5.50917 5.79368 0.130753 12.4391 0.130753C19.0846 0.130753 24.4717 5.50917 24.4717 12.1438C24.4717 18.7784 19.0846 24.1568 12.4391 24.1568ZM12.4391 22.2347C18.0213 22.2347 22.5465 17.7168 22.5465 12.1438C22.5465 6.5707 18.0213 2.05284 12.4391 2.05284C6.85695 2.05284 2.33171 6.5707 2.33171 12.1438C2.33171 17.7168 6.85695 22.2347 12.4391 22.2347ZM8.34803 7.33857H14.4432C15.8774 7.33857 17.0349 8.61169 16.9936 10.0492C16.9798 10.8232 16.5531 11.4852 15.7947 11.7478C16.9392 12.1901 17.5566 12.8435 17.4876 14.1151C17.4187 15.7738 16.1394 16.949 14.4432 16.949H8.34803V7.33857ZM12.0533 10.0492V11.0349H13.0425C13.3147 11.0349 13.5354 10.8142 13.5354 10.542C13.5354 10.2698 13.3147 10.0492 13.0425 10.0492H12.0533ZM12.0533 13.0062V14.2384H13.1663C13.5066 14.2384 13.7824 13.9625 13.7824 13.6223C13.7824 13.2821 13.5066 13.0062 13.1663 13.0062H12.0533Z" fill="url(#paint0_linear_1_228)"/>
<defs>
<linearGradient id="paint0_linear_1_228" x1="24.4717" y1="0.130753" x2="0.44573" y2="24.196" gradientUnits="userSpaceOnUse">
<stop stop-color="#FF271D"/>
<stop offset="1" stop-color="#FF2E8E"/>
</linearGradient>
</defs>
</svg>
