<svg width="80" height="17" viewBox="0 0 80 17" fill="none" xmlns="http://www.w3.org/2000/svg">
<path d="M15.8719 5.66423H12.4399V7.67223H15.8719V5.66423Z" fill="black"/>
<path d="M15.8719 8.44833H12.4399V10.4563H15.8719V8.44833Z" fill="black"/>
<path d="M15.8719 11.2322H12.4399V13.2402H15.8719V11.2322Z" fill="black"/>
<path d="M3.432 14.0162H0V16.0242H3.432V14.0162Z" fill="black"/>
<path d="M7.57605 14.0162H4.14404V16.0242H7.57605V14.0162Z" fill="black"/>
<path d="M11.7279 14.0162H8.2959V16.0242H11.7279V14.0162Z" fill="black"/>
<path d="M15.8719 14.0162H12.4399V16.0242H15.8719V14.0162Z" fill="black"/>
<path d="M11.7279 11.2322H8.2959V13.2402H11.7279V11.2322Z" fill="black"/>
<path d="M7.57605 11.2322H4.14404V13.2402H7.57605V11.2322Z" fill="black"/>
<path d="M7.57605 8.44833H4.14404V10.4563H7.57605V8.44833Z" fill="black"/>
<path d="M18.728 10.8802C18.728 14.0882 20.704 16.0082 23.64 16.0082C25.104 16.0082 26.336 15.6002 27.024 14.5282V16.0082H29.704V0.728149H26.92V7.22416C26.288 6.15216 25.12 5.67216 23.656 5.67216C20.792 5.66416 18.728 7.62416 18.728 10.8802ZM27.008 10.8802C27.008 12.7122 25.76 13.8562 24.264 13.8562C22.712 13.8562 21.52 12.7122 21.52 10.8802C21.52 9.01616 22.72 7.84816 24.264 7.84816C25.76 7.84816 27.008 9.03216 27.008 10.8802Z" fill="black"/>
<path d="M38.368 12.064C38.048 13.248 37.24 13.84 35.968 13.84C34.488 13.84 33.272 12.944 33.24 11.36H40.256C40.344 10.968 40.384 10.552 40.384 10.096C40.384 7.25598 38.448 5.65598 35.592 5.65598C32.544 5.65598 30.448 7.82398 30.448 10.768C30.448 14.048 32.76 16.016 35.96 16.016C38.376 16.016 40.016 15.008 40.736 13L38.368 12.064ZM33.24 9.50398C33.504 8.35998 34.456 7.68798 35.6 7.68798C36.848 7.68798 37.696 8.35998 37.696 9.41598L37.68 9.50398H33.24Z" fill="black"/>
<path d="M48.6959 12.064C48.3759 13.248 47.5679 13.84 46.2959 13.84C44.8159 13.84 43.5999 12.944 43.5679 11.36H50.5839C50.6719 10.968 50.7119 10.552 50.7119 10.096C50.7119 7.25598 48.7759 5.65598 45.9199 5.65598C42.8719 5.65598 40.7759 7.82398 40.7759 10.768C40.7759 14.048 43.0879 16.016 46.2879 16.016C48.7039 16.016 50.3439 15.008 51.0639 13L48.6959 12.064ZM43.5679 9.50398C43.8319 8.35998 44.7839 7.68798 45.9279 7.68798C47.1759 7.68798 48.0239 8.35998 48.0239 9.41598L48.0079 9.50398H43.5679Z" fill="black"/>
<path d="M60.536 16.0242V13.5041H54.688L60.376 7.96814V5.66414H51.376V8.06414H56.872L51.2 13.6241V16.0242H60.536Z" fill="black"/>
<path d="M68.672 12.064C68.352 13.248 67.544 13.84 66.272 13.84C64.792 13.84 63.576 12.944 63.544 11.36H70.56C70.648 10.968 70.688 10.552 70.688 10.096C70.688 7.25598 68.752 5.65598 65.896 5.65598C62.848 5.65598 60.752 7.82398 60.752 10.768C60.752 14.048 63.064 16.016 66.264 16.016C68.68 16.016 70.32 15.008 71.04 13L68.672 12.064ZM63.544 9.50398C63.808 8.35998 64.76 7.68798 65.904 7.68798C67.152 7.68798 68 8.35998 68 9.41598L67.984 9.50398H63.544Z" fill="black"/>
<path d="M77.2881 9.24012C77.2881 9.34412 77.2881 9.53612 77.2881 9.53612H80.0001C80.0001 9.53612 80.0001 9.02412 80.0001 8.74412C80.0001 6.96812 78.8881 5.68011 77.0241 5.68011C75.8241 5.68011 74.9761 6.26412 74.5361 7.23212V5.68011H71.7361V16.0241H74.5361V9.36012C74.5361 8.30412 75.1041 7.72012 75.9761 7.72012C76.7761 7.72812 77.2881 8.48012 77.2881 9.24012Z" fill="black"/>
</svg>
