<svg width="81" height="18" viewBox="0 0 81 18" fill="none" xmlns="http://www.w3.org/2000/svg">
<path d="M4.43471 15.7451C0.734598 13.0715 -0.107745 7.89202 2.55324 4.17629C5.21408 0.460631 10.371 -0.38421 14.0712 2.28939C17.7713 4.96287 18.6137 10.1424 15.9528 13.8582C13.2918 17.5739 8.13506 18.4187 4.43471 15.7451Z" fill="url(#paint0_linear_22_52)" stroke="url(#paint1_linear_22_52)" stroke-width="0.75" stroke-miterlimit="10"/>
<path d="M12.1922 12.967C12.7148 12.8137 13.0838 12.442 13.2347 11.917L13.2793 11.7627L13.2852 7.6234C13.2895 4.52355 13.2853 3.46482 13.2681 3.40704C13.25 3.34578 13.2212 3.29439 13.1836 3.25379C13.1283 3.2197 13.0618 3.20174 12.9865 3.20186C12.9345 3.20186 12.7541 3.22689 12.5858 3.2575C11.8413 3.39306 7.45275 4.26711 7.37778 4.29483C7.26182 4.3377 7.14696 4.43956 7.09245 4.54768L7.04626 4.63928C7.04626 4.63928 7.02443 11.1273 6.99082 11.2003C6.93971 11.3115 6.82621 11.4168 6.72157 11.4503C6.67198 11.4663 6.47602 11.5103 6.28579 11.5481C5.40526 11.7233 5.07827 11.8495 4.80164 12.1211C4.64453 12.2753 4.52817 12.4858 4.47788 12.7067C4.42978 12.9178 4.44587 13.2338 4.51439 13.4259C4.58619 13.6269 4.70176 13.7985 4.85287 13.9335C4.99022 14.0393 5.15237 14.1181 5.33467 14.1649C5.73773 14.2681 6.49234 14.1533 6.8781 13.9302C7.03943 13.8368 7.24695 13.6411 7.35487 13.4801C7.39766 13.4164 7.46185 13.2881 7.49781 13.1949C7.62345 12.8686 7.6274 7.05636 7.64344 6.98315C7.6707 6.85891 7.75562 6.76797 7.87263 6.73709C7.97809 6.70941 12.2038 5.87394 12.3228 5.85726C12.4274 5.84274 12.5262 5.87644 12.5802 5.94289C12.6122 5.96007 12.6392 5.98322 12.6581 6.01172C12.6925 6.06283 12.6945 6.16388 12.6996 8.00408C12.7055 10.1221 12.7081 10.0725 12.593 10.2061C12.5092 10.3033 12.4047 10.341 11.9752 10.4286C11.3217 10.562 11.0981 10.6254 10.8478 10.7475C10.5353 10.9002 10.3617 11.0674 10.2276 11.3452C10.1328 11.5417 10.0974 11.689 10.0977 11.8845C10.0982 12.2343 10.2189 12.5075 10.491 12.775C10.5161 12.7996 10.5407 12.8225 10.5656 12.8441C10.7026 12.9501 10.8425 13.014 11.0182 13.0545C11.2834 13.1155 11.8229 13.0754 12.1922 12.967Z" fill="url(#paint2_linear_22_52)"/>
<path d="M21.7871 15.6486V5.42721H24.5426V15.6486H21.7871ZM21.7871 3.70504V1.4057H24.5426V3.70504H21.7871Z" fill="black"/>
<path d="M30.5745 15.6486V3.76089H25.6407V1.87115H38.3848V3.76089H33.451V15.6486H30.5745Z" fill="black"/>
<path d="M45.813 15.6486V13.7216C44.9193 15.1614 43.7588 15.8813 42.3314 15.8813C41.4191 15.8813 40.6992 15.5927 40.1717 15.0155C39.6442 14.4384 39.3804 13.6502 39.3804 12.651V5.42721H42.1359V11.9715C42.1359 13.132 42.5238 13.7123 43.2995 13.7123C44.1684 13.7123 45.0062 13.0948 45.813 11.8598V5.42721H48.5685V15.6486H45.813Z" fill="black"/>
<path d="M51.1932 15.6486V5.42721H53.9487V7.35419C54.8486 5.91439 56.0091 5.19449 57.4303 5.19449C58.3426 5.19449 59.0625 5.48307 59.59 6.06023C60.1175 6.63739 60.3812 7.42556 60.3812 8.42473V15.6486H57.6258V9.10429C57.6258 7.94376 57.241 7.3635 56.4714 7.3635C55.5964 7.3635 54.7555 7.981 53.9487 9.216V15.6486H51.1932Z" fill="black"/>
<path d="M71.2166 15.3041C69.9071 15.6889 68.6659 15.8813 67.493 15.8813C65.7863 15.8813 64.4396 15.3972 63.4528 14.4291C62.4661 13.4609 61.9727 12.139 61.9727 10.4634C61.9727 8.88087 62.4226 7.60863 63.3225 6.6467C64.2286 5.67856 65.4232 5.19449 66.9065 5.19449C68.4021 5.19449 69.4944 5.66614 70.1833 6.60946C70.8721 7.55278 71.2166 9.04533 71.2166 11.0871H64.8771C65.0633 13.0358 66.1338 14.0102 68.0887 14.0102C69.0134 14.0102 70.056 13.7961 71.2166 13.3678V15.3041ZM64.8399 9.53251H68.5076C68.5076 7.78861 67.946 6.91666 66.8227 6.91666C65.6808 6.91666 65.0198 7.78861 64.8399 9.53251Z" fill="black"/>
<path d="M72.9663 15.3227V13.3027C74.3316 13.8736 75.4983 14.1591 76.4665 14.1591C77.596 14.1591 78.1607 13.7743 78.1607 13.0048C78.1607 12.5083 77.6953 12.0739 76.7644 11.7015L75.8335 11.3292C74.8219 10.9196 74.0989 10.4789 73.6645 10.0073C73.23 9.53561 73.0128 8.95224 73.0128 8.25717C73.0128 7.28902 73.3821 6.53809 74.1206 6.00437C74.8591 5.46445 75.8924 5.19449 77.2205 5.19449C78.0521 5.19449 79.042 5.3155 80.1901 5.55754V7.49382C79.0854 7.10905 78.17 6.91666 77.4439 6.91666C76.302 6.91666 75.7311 7.27041 75.7311 7.97789C75.7311 8.44335 76.1531 8.83743 76.9971 9.16014L77.7977 9.46734C78.9954 9.92038 79.827 10.3796 80.2925 10.8451C80.7642 11.3105 81 11.9094 81 12.6417C81 13.6037 80.5997 14.3856 79.7991 14.9876C79.0047 15.5834 77.9683 15.8813 76.6899 15.8813C75.4611 15.8813 74.2199 15.6951 72.9663 15.3227Z" fill="black"/>
<defs>
<linearGradient id="paint0_linear_22_52" x1="4.05634" y1="2.5741" x2="14.4495" y2="15.4587" gradientUnits="userSpaceOnUse">
<stop stop-color="white"/>
<stop offset="0.5368" stop-color="#EEEEEE"/>
<stop offset="1" stop-color="#E5E5E5"/>
</linearGradient>
<linearGradient id="paint1_linear_22_52" x1="3.8725" y1="2.34619" x2="14.6333" y2="15.6866" gradientUnits="userSpaceOnUse">
<stop stop-color="#FF5E4E"/>
<stop offset="0.1505" stop-color="#FF5C6D"/>
<stop offset="0.1694" stop-color="#FF5E73"/>
<stop offset="0.2476" stop-color="#FF6385"/>
<stop offset="0.3026" stop-color="#FF658C"/>
<stop offset="0.3685" stop-color="#E4729F"/>
<stop offset="0.4329" stop-color="#D17CAD"/>
<stop offset="0.4772" stop-color="#CA7FB2"/>
<stop offset="0.5528" stop-color="#9D6CFF"/>
<stop offset="0.5934" stop-color="#9870FF" stop-opacity="0.9882"/>
<stop offset="0.6432" stop-color="#897AFE" stop-opacity="0.9725"/>
<stop offset="0.6979" stop-color="#708CFE" stop-opacity="0.9529"/>
<stop offset="0.7556" stop-color="#4DA4FD" stop-opacity="0.9333"/>
<stop offset="0.8022" stop-color="#2CBCFC" stop-opacity="0.9176"/>
<stop offset="1" stop-color="#00C7FF"/>
</linearGradient>
<linearGradient id="paint2_linear_22_52" x1="4.30549" y1="2.4852" x2="14.277" y2="15.4275" gradientUnits="userSpaceOnUse">
<stop stop-color="#FF5E4E"/>
<stop offset="0.249" stop-color="#FF5C6D"/>
<stop offset="0.3765" stop-color="#FF658C"/>
<stop offset="0.497" stop-color="#CA7FB2"/>
<stop offset="0.6267" stop-color="#9D6CFF"/>
<stop offset="0.7628" stop-color="#2CBCFC" stop-opacity="0.9176"/>
<stop offset="1" stop-color="#00C7FF"/>
</linearGradient>
</defs>
</svg>
