<svg width="67" height="21" viewBox="0 0 67 21" fill="none" xmlns="http://www.w3.org/2000/svg">
<path d="M9.92854 0.728149C4.44527 0.728149 0 5.20538 0 10.7282C0 16.2513 4.44527 20.7281 9.92854 20.7281C15.4124 20.7281 19.8572 16.2513 19.8572 10.7282C19.8572 5.20574 15.4124 0.728627 9.92842 0.728627L9.92854 0.728149ZM14.4817 15.1511C14.3039 15.4449 13.9221 15.538 13.6304 15.3577C11.2993 13.9235 8.36474 13.5987 4.90872 14.394C4.57569 14.4704 4.24372 14.2603 4.16785 13.9247C4.09161 13.5892 4.29945 13.2548 4.63331 13.1784C8.41536 12.3081 11.6595 12.6828 14.2766 14.2937C14.5683 14.474 14.6607 14.8573 14.4817 15.1511ZM15.6969 12.4282C15.4729 12.795 14.9963 12.9109 14.6323 12.6852C11.9635 11.033 7.89536 10.5545 4.73871 11.5196C4.32932 11.6441 3.89694 11.4117 3.77269 11.0001C3.64938 10.5878 3.88022 10.1531 4.28889 10.0277C7.89465 8.92576 12.3773 9.45954 15.442 11.3565C15.806 11.5821 15.921 12.0622 15.6969 12.4283V12.4282ZM15.8013 9.59281C12.6013 7.67847 7.32189 7.50245 4.26672 8.43639C3.77612 8.58626 3.25731 8.30731 3.10863 7.81317C2.95996 7.31879 3.23668 6.79659 3.72763 6.64636C7.23475 5.57401 13.0649 5.7812 16.749 7.98405C17.1913 8.24784 17.3359 8.82187 17.0739 9.26573C16.8131 9.7102 16.2416 9.85672 15.8017 9.59281H15.8013ZM27.0123 9.95965C25.2979 9.54791 24.9932 9.25893 24.9932 8.6517C24.9932 8.07803 25.5291 7.69196 26.327 7.69196C27.1 7.69196 27.8659 7.98512 28.6697 8.58865C28.6934 8.60692 28.7243 8.6142 28.7539 8.60943C28.7847 8.60489 28.8108 8.58829 28.8286 8.56333L29.6656 7.37491C29.7 7.32595 29.6905 7.25848 29.6443 7.22111C28.6875 6.44813 27.611 6.07233 26.3519 6.07233C24.5012 6.07233 23.2077 7.19113 23.2077 8.79189C23.2077 10.5085 24.3233 11.1163 26.2511 11.5855C27.8908 11.9661 28.1682 12.2849 28.1682 12.8548C28.1682 13.4865 27.6086 13.8793 26.7076 13.8793C25.7069 13.8793 24.8901 13.539 23.9771 12.7437C23.9546 12.7234 23.9238 12.715 23.8953 12.7162C23.8645 12.7186 23.8372 12.733 23.8183 12.7556L22.8793 13.8805C22.8402 13.9283 22.8449 13.9976 22.8899 14.0382C23.9522 14.9935 25.2588 15.4974 26.6696 15.4974C28.6638 15.4974 29.9525 14.4 29.9525 12.7007C29.9561 11.2669 29.1037 10.4728 27.0158 9.96121L27.0123 9.95965ZM34.4649 8.25679C33.6006 8.25679 32.8916 8.59975 32.306 9.30251V8.51151C32.306 8.44905 32.2562 8.39818 32.1945 8.39818H30.6592C30.5975 8.39818 30.5477 8.44905 30.5477 8.51151V17.3006C30.5477 17.3627 30.5975 17.414 30.6592 17.414H32.1945C32.2562 17.414 32.306 17.3627 32.306 17.3006V14.5266C32.8916 15.1869 33.6006 15.5105 34.4649 15.5105C36.0714 15.5105 37.698 14.265 37.698 11.884C37.7004 9.50253 36.0738 8.25667 34.4661 8.25667L34.4649 8.25679ZM35.9125 11.884C35.9125 13.096 35.1715 13.9426 34.1092 13.9426C33.06 13.9426 32.268 13.0578 32.268 11.884C32.268 10.7102 33.06 9.82555 34.1092 9.82555C35.1538 9.82543 35.9125 10.691 35.9125 11.8839V11.884ZM41.8654 8.25679C39.7966 8.25679 38.1758 9.86126 38.1758 11.9099C38.1758 13.9367 39.7859 15.5237 41.8405 15.5237C43.9165 15.5237 45.542 13.9247 45.542 11.884C45.542 9.85027 43.9272 8.25703 41.8654 8.25703V8.25679ZM41.8654 13.9546C40.7652 13.9546 39.9353 13.0637 39.9353 11.8834C39.9353 10.6978 40.7367 9.83737 41.8405 9.83737C42.9479 9.83737 43.7825 10.7279 43.7825 11.9093C43.7825 13.0948 42.9763 13.9546 41.8654 13.9546ZM49.9595 8.39818H48.27V6.65878C48.27 6.59645 48.2202 6.54558 48.1586 6.54558H46.6232C46.5616 6.54558 46.5106 6.59645 46.5106 6.65878V8.39818H45.7731C45.7115 8.39818 45.6617 8.44905 45.6617 8.51151V9.84024C45.6617 9.90257 45.7115 9.95356 45.7731 9.95356H46.5106V13.3921C46.5106 14.7809 47.197 15.4855 48.5522 15.4855C49.1023 15.4855 49.5588 15.3708 49.9891 15.1248C50.0247 15.1057 50.046 15.0675 50.046 15.0269V13.7611C50.046 13.7229 50.0259 13.6859 49.9927 13.6656C49.9595 13.6441 49.918 13.6429 49.8836 13.6608C49.5884 13.8101 49.3027 13.8793 48.9826 13.8793C48.4905 13.8793 48.27 13.6536 48.27 13.1497V9.95416H49.9595C50.0211 9.95416 50.0709 9.90329 50.0709 9.84083V8.51222C50.0733 8.44977 50.0235 8.3989 49.9607 8.3989L49.9595 8.39818ZM55.8448 8.40499V8.19135C55.8448 7.56287 56.0843 7.28261 56.6202 7.28261C56.9403 7.28261 57.1975 7.34661 57.4856 7.44334C57.5212 7.45456 57.558 7.44895 57.5864 7.42758C57.6161 7.4062 57.6327 7.37193 57.6327 7.33563V6.03281C57.6327 5.98301 57.6018 5.93895 57.5532 5.92426C57.2497 5.83315 56.8608 5.73964 56.2775 5.73964C54.8607 5.73964 54.1103 6.54378 54.1103 8.0643V8.39149H53.3728C53.3112 8.39149 53.2602 8.44237 53.2602 8.5047V9.84024C53.2602 9.90257 53.3112 9.95356 53.3728 9.95356H54.1103V15.2562C54.1103 15.3195 54.1612 15.3696 54.2229 15.3696H55.757C55.8199 15.3696 55.8697 15.3195 55.8697 15.2562V9.95392H57.3031L59.4988 15.2562C59.2498 15.8127 59.0044 15.9237 58.6701 15.9237C58.3997 15.9237 58.114 15.8425 57.8235 15.6813C57.7963 15.667 57.7631 15.6646 57.7346 15.6729C57.705 15.6837 57.6801 15.7052 57.6682 15.7339L57.1478 16.8838C57.1229 16.9388 57.1442 17.002 57.1964 17.0307C57.7394 17.3268 58.229 17.4534 58.8349 17.4534C59.9683 17.4534 60.5955 16.9208 61.1468 15.4902L63.8096 8.55975C63.8238 8.52488 63.8191 8.48547 63.7978 8.45455C63.7776 8.42386 63.7432 8.40535 63.7065 8.40535H62.1083C62.0597 8.40535 62.017 8.43604 62.0016 8.48129L60.3643 13.1903L58.5717 8.47819C58.5551 8.43436 58.5136 8.40535 58.4673 8.40535H55.8448V8.40499ZM52.4326 8.39818H50.8973C50.8356 8.39818 50.7847 8.44905 50.7847 8.51151V15.2562C50.7847 15.3195 50.8356 15.3696 50.8973 15.3696H52.4326C52.4943 15.3696 52.5453 15.3195 52.5453 15.2562V8.51198C52.5453 8.44953 52.4955 8.39866 52.4326 8.39866V8.39818ZM51.6739 5.32694C51.0656 5.32694 50.5724 5.82276 50.5724 6.43524C50.5724 7.04807 51.0656 7.54448 51.6739 7.54448C52.2821 7.54448 52.7741 7.04807 52.7741 6.43524C52.7741 5.82288 52.2809 5.32694 51.6739 5.32694ZM65.1209 10.5669C64.5139 10.5669 64.0408 10.0755 64.0408 9.47877C64.0408 8.88205 64.5198 8.38505 65.1268 8.38505C65.7338 8.38505 66.2069 8.87632 66.2069 9.47256C66.2069 10.0693 65.7279 10.5669 65.1209 10.5669ZM65.1268 8.49324C64.5731 8.49324 64.1546 8.93627 64.1546 9.47877C64.1546 10.021 64.5708 10.4581 65.1209 10.4581C65.6746 10.4581 66.0931 10.0154 66.0931 9.47256C66.0931 8.93029 65.6769 8.49324 65.1268 8.49324ZM65.3663 9.58445L65.6722 10.0153H65.4137L65.1387 9.62004H64.9027V10.0153H64.687V8.87321H65.192C65.4564 8.87321 65.6295 9.00899 65.6295 9.23755C65.6307 9.42479 65.5228 9.53919 65.3675 9.58445H65.3663ZM65.1837 9.06917H64.9027V9.43041H65.1837C65.3236 9.43041 65.4078 9.36126 65.4078 9.24961C65.4078 9.13211 65.3236 9.06917 65.1837 9.06917Z" fill="black"/>
</svg>
