<svg width="80" height="16" viewBox="0 0 80 16" fill="none" xmlns="http://www.w3.org/2000/svg">
<path d="M6.45584 6.7068V6.11525C6.20246 6.08271 5.94654 6.06488 5.69003 6.0619C3.20675 6.05765 1.00815 7.36188 0.262437 9.28167C-0.483255 11.2015 0.396957 13.2913 2.43544 14.4407C0.908457 13.1163 0.484451 11.1882 1.35284 9.5177C2.22122 7.84721 4.21982 6.74634 6.45584 6.7068Z" fill="#25F4EE"/>
<path d="M6.59348 13.4078C7.98196 13.4063 9.12326 12.5198 9.18405 11.3956V1.36335H11.4455C11.3994 1.15373 11.3773 0.941078 11.3797 0.728149L8.28663 0.728149V10.7507C8.2352 11.8806 7.09121 12.7757 5.69607 12.7775C5.27916 12.7746 4.86905 12.6915 4.49951 12.5351C4.739 12.804 5.05352 13.0232 5.41742 13.1749C5.78132 13.3266 6.1843 13.4064 6.5935 13.4078H6.59348ZM15.6694 4.76724V4.20961C14.8371 4.20984 14.0233 4.01079 13.3301 3.63744C13.9378 4.20996 14.7589 4.60654 15.6694 4.76724H15.6694Z" fill="#25F4EE"/>
<path d="M13.3301 3.63741C12.6473 3.00722 12.2709 2.19714 12.2712 1.35846H11.4456C11.5522 1.82216 11.7743 2.26338 12.0983 2.6552C12.4223 3.04703 12.8415 3.38123 13.3301 3.63741ZM5.69014 8.56868C4.49864 8.57363 3.46421 9.2352 3.18123 10.1733C2.89824 11.1113 3.43931 12.0851 4.49358 12.535C3.92234 11.8958 3.84163 11.051 4.28468 10.3482C4.72777 9.64535 5.61972 9.20329 6.59354 9.20388C6.8532 9.2065 7.11108 9.23916 7.35935 9.30087V6.75035C7.10581 6.71956 6.8499 6.70336 6.59354 6.70187H6.45593V8.64139C6.20636 8.58716 5.94839 8.56266 5.69012 8.56866L5.69014 8.56868Z" fill="#FE2C55"/>
<path d="M15.6695 4.76727V6.70679C14.1287 6.70437 12.628 6.30912 11.3798 5.57702V10.6731C11.3732 13.216 8.82782 15.2747 5.6902 15.2747C4.52496 15.2764 3.38779 14.985 2.43555 14.4407C4.02471 15.8259 6.49791 16.2819 8.67005 15.5901C10.8422 14.8984 12.2708 13.1998 12.2712 11.3083V6.22676C13.5236 6.95407 15.0262 7.34418 16.5669 7.34199V4.84485C16.2653 4.84407 15.9645 4.81808 15.6695 4.76727H15.6695Z" fill="#FE2C55"/>
<path d="M11.3796 10.6732V5.577C12.6316 6.30491 14.1344 6.69508 15.6752 6.69225V4.75268C14.7649 4.59689 13.9418 4.20547 13.33 3.63743C12.8413 3.38125 12.4222 3.04704 12.0982 2.65522C11.7741 2.26339 11.552 1.82216 11.4454 1.35846H9.18392V11.3956C9.13867 12.2911 8.39862 13.0651 7.34002 13.3242C6.2814 13.5832 5.1365 13.2704 4.48741 12.5448C3.43316 12.0949 2.89208 11.1211 3.17506 10.183C3.45806 9.24498 4.49247 8.58341 5.68397 8.57845C5.94369 8.58035 6.2017 8.613 6.44978 8.67544V6.73588C4.20118 6.76674 2.18747 7.87148 1.31664 9.55195C0.445797 11.2324 0.88231 13.1712 2.42934 14.4941C3.39097 15.0204 4.5298 15.2931 5.68997 15.2748C8.82759 15.2748 11.373 13.2161 11.3796 10.6732Z" fill="black"/>
<path d="M26.3726 15.2807H23.1026V6.66606H19.8388L19.8325 4.30464H29.9115L28.9862 6.66606H26.3726V15.2807ZM52.9644 15.2807H49.7006V6.66606H46.4243L46.4181 4.30464H56.7284L55.803 6.66606H52.9644V15.2807ZM30.5243 7.7961H33.7568V15.2807H30.5493L30.5243 7.7961ZM39.2215 11.6372L38.2648 12.3872V15.2807H35.0386V4.27423H38.2648V9.38727L41.4661 6.85356H45.3176L41.2723 10.0359L45.8053 15.2807H42.2477L39.2215 11.6372ZM73.4225 11.6372L72.4972 12.3872V15.2807H69.2646L69.2334 4.27423H72.4972V9.38727L75.6922 6.85356H79.5437L75.4984 10.0359L80.0002 15.2807H76.4425L73.4225 11.6372Z" fill="black"/>
<path d="M32.1437 6.9397C33.0415 6.9397 33.7694 6.34983 33.7694 5.62219C33.7694 4.89455 33.0415 4.30469 32.1437 4.30469C31.2459 4.30469 30.5181 4.89455 30.5181 5.62219C30.5181 6.34983 31.2459 6.9397 32.1437 6.9397Z" fill="black"/>
<path d="M56.3156 10.8011C56.3166 8.4633 58.5356 6.51921 61.4114 6.33673H60.9299C58.0073 6.47489 55.7246 8.43603 55.7246 10.8087C55.7246 13.1814 58.0073 15.1425 60.9299 15.2807H61.4114C58.5284 15.0978 56.3068 13.1448 56.3156 10.8011Z" fill="#25F4EE"/>
<path d="M62.6684 6.32148H62.1807C65.0471 6.51337 67.2529 8.45485 67.2529 10.7859C67.2529 13.117 65.0471 15.0585 62.1807 15.2504H62.6684C65.7209 15.2504 68.1956 13.2448 68.1956 10.7707C68.1956 8.29668 65.7209 6.29108 62.6684 6.29108V6.32148Z" fill="#FE2C55"/>
<path d="M61.7928 12.9801C60.308 12.9801 59.1043 12.0045 59.1043 10.8011C59.1043 9.5977 60.308 8.62213 61.7928 8.62213C63.2777 8.62213 64.4814 9.5977 64.4814 10.8011C64.4779 12.0034 63.2762 12.9773 61.7928 12.9801ZM61.7928 6.32153C58.7402 6.32153 56.2656 8.32711 56.2656 10.8011C56.2656 13.2751 58.7402 15.2807 61.7928 15.2807C64.8454 15.2807 67.32 13.2751 67.32 10.8011C67.32 9.61306 66.7377 8.47366 65.7011 7.63357C64.6646 6.79349 63.2587 6.32153 61.7928 6.32153Z" fill="black"/>
</svg>
