<svg width="70" height="16" viewBox="0 0 70 16" fill="none" xmlns="http://www.w3.org/2000/svg">
<path d="M20.4748 9.0222C20.0759 8.51596 20.1901 8.29074 20.4748 7.83822C20.48 7.83306 23.773 3.26038 24.1123 1.70963L24.1144 1.7086C24.283 1.14347 24.1144 0.728149 23.2991 0.728149H20.6013C19.9145 0.728149 19.5979 1.08458 19.4282 1.48337C19.4282 1.48337 18.0547 4.78736 16.1115 6.92906C15.4844 7.54791 15.1945 7.74627 14.8521 7.74627C14.6835 7.74627 14.4213 7.54791 14.4213 6.98278V1.7086C14.4213 1.03086 14.2291 0.728149 13.6605 0.728149H9.41853C8.98775 0.728149 8.73175 1.04429 8.73175 1.33874C8.73175 1.98135 9.70332 2.12909 9.80407 3.93708V7.85992C9.80407 8.71949 9.64883 8.87756 9.30441 8.87756C8.38733 8.87756 6.16147 5.56015 4.84241 1.76336C4.57612 1.02673 4.31601 0.729182 3.62409 0.729182H0.9253C0.155245 0.729182 0 1.08562 0 1.48441C0 2.18901 0.917075 5.69239 4.26461 10.3209C6.49561 13.4802 9.63752 15.1921 12.4957 15.1921C14.2136 15.1921 14.4234 14.8119 14.4234 14.1579C14.4234 11.1391 14.2681 10.854 15.1287 10.854C15.5276 10.854 16.2143 11.0523 17.8182 12.5762C19.6513 14.3832 19.9526 15.1921 20.9786 15.1921H23.6764C24.4454 15.1921 24.8351 14.8119 24.6109 14.0619C24.0979 12.4843 20.6311 9.23916 20.4748 9.0222Z" fill="black"/>
<path d="M42.169 13.4905H39.6963V6.92984L37.8949 11.164H36.1999L34.3986 6.92984V13.4905H32.0588V3.59303H34.9237L37.1172 8.4786L39.3041 3.59303H42.169V13.4905Z" fill="black"/>
<path d="M51.0228 13.4905H48.6964V12.6662C48.2931 13.003 47.9231 13.26 47.5863 13.4373C47.2495 13.6101 46.8485 13.6965 46.3832 13.6965C45.6432 13.6965 45.0649 13.4639 44.6483 12.9986C44.2362 12.5289 44.0302 11.8243 44.0302 10.8848V6.02584H46.3699V9.72825C46.3699 10.1138 46.3788 10.4284 46.3965 10.6721C46.4187 10.9159 46.4674 11.1219 46.5427 11.2903C46.6136 11.4454 46.7222 11.5628 46.8684 11.6426C47.0191 11.7224 47.2274 11.7622 47.4933 11.7622C47.6572 11.7622 47.85 11.7224 48.0716 11.6426C48.2976 11.5628 48.5058 11.4543 48.6964 11.3169V6.02584H51.0228V13.4905Z" fill="black"/>
<path d="M55.0842 13.6965C54.5347 13.6965 54.014 13.6367 53.5221 13.5171C53.0347 13.3974 52.6314 13.2578 52.3124 13.0983V11.1308H52.5051C52.6159 11.215 52.7422 11.308 52.884 11.4099C53.0258 11.5119 53.223 11.6182 53.4756 11.729C53.6927 11.8309 53.9365 11.9196 54.2068 11.9949C54.4815 12.0658 54.7784 12.1012 55.0975 12.1012C55.4254 12.1012 55.7134 12.0503 55.9616 11.9484C56.2142 11.8464 56.3405 11.6847 56.3405 11.4631C56.3405 11.2903 56.2829 11.1596 56.1677 11.0709C56.0524 10.9823 55.8287 10.8981 55.4963 10.8184C55.3191 10.774 55.0953 10.7275 54.825 10.6788C54.5546 10.6256 54.3153 10.5658 54.1071 10.4993C53.5221 10.3176 53.0812 10.0495 52.7843 9.69501C52.4918 9.33607 52.3456 8.86635 52.3456 8.28584C52.3456 7.95349 52.4209 7.64108 52.5716 7.34861C52.7267 7.0517 52.9527 6.78804 53.2496 6.55761C53.5465 6.33161 53.9121 6.15214 54.3464 6.0192C54.7851 5.88626 55.2792 5.81979 55.8287 5.81979C56.3516 5.81979 56.8324 5.87296 57.2711 5.97931C57.7098 6.08124 58.0798 6.20531 58.3811 6.35155V8.23931H58.195C58.1152 8.17727 57.9889 8.09529 57.8161 7.99337C57.6433 7.88702 57.4749 7.79617 57.311 7.72084C57.116 7.63221 56.8966 7.55909 56.6529 7.50149C56.4136 7.44388 56.1677 7.41508 55.9151 7.41508C55.5783 7.41508 55.2925 7.47268 55.0576 7.5879C54.8272 7.70311 54.712 7.856 54.712 8.04654C54.712 8.21494 54.7696 8.34788 54.8848 8.44537C55 8.54286 55.2504 8.63813 55.6359 8.73119C55.8353 8.77993 56.0635 8.82868 56.3205 8.87742C56.582 8.92174 56.8324 8.98378 57.0717 9.06354C57.6079 9.23636 58.0133 9.49117 58.2881 9.82795C58.5672 10.1603 58.7068 10.6034 58.7068 11.1574C58.7068 11.5074 58.6248 11.842 58.4609 12.1611C58.2969 12.4757 58.0643 12.7416 57.7629 12.9587C57.4439 13.1936 57.0672 13.3753 56.633 13.5038C56.2031 13.6323 55.6869 13.6965 55.0842 13.6965Z" fill="black"/>
<path d="M62.1434 13.4905H59.8169V6.02584H62.1434V13.4905ZM62.2098 4.96232H59.7504V3.14767H62.2098V4.96232Z" fill="black"/>
<path d="M67.5873 13.6899C66.9713 13.6899 66.4063 13.6123 65.8923 13.4572C65.3827 13.3021 64.9395 13.0628 64.5629 12.7394C64.1906 12.4159 63.9004 12.0104 63.6921 11.5229C63.4838 11.0311 63.3797 10.4528 63.3797 9.78807C63.3797 9.07462 63.4927 8.46752 63.7187 7.96678C63.9447 7.46604 64.2505 7.05392 64.636 6.73043C65.0082 6.42023 65.4447 6.19202 65.9455 6.04578C66.4506 5.89512 66.9757 5.81979 67.5208 5.81979C67.9329 5.81979 68.345 5.86853 68.7572 5.96602C69.1693 6.05908 69.5836 6.20975 70.0002 6.41802V8.41213H69.701C69.608 8.3235 69.4928 8.22601 69.3554 8.11966C69.2225 8.01331 69.0762 7.91582 68.9167 7.82719C68.7483 7.73413 68.5577 7.65658 68.345 7.59455C68.1323 7.52808 67.8953 7.49484 67.6338 7.49484C67.04 7.49484 66.5791 7.70311 66.2512 8.11966C65.9277 8.53178 65.766 9.08791 65.766 9.78807C65.766 10.537 65.9388 11.0953 66.2845 11.4631C66.6345 11.8309 67.0976 12.0148 67.6737 12.0148C67.9662 12.0148 68.2232 11.9816 68.4447 11.9151C68.6663 11.8487 68.8569 11.7689 69.0164 11.6758C69.1715 11.5828 69.3044 11.4875 69.4152 11.39C69.526 11.2881 69.6213 11.1972 69.701 11.1175H70.0002V13.1116C69.8672 13.1692 69.7121 13.2357 69.5349 13.311C69.362 13.3863 69.1848 13.4484 69.0031 13.4971C68.7771 13.5592 68.5644 13.6057 68.365 13.6367C68.17 13.6722 67.9108 13.6899 67.5873 13.6899Z" fill="black"/>
</svg>
