<svg width="90" height="18" viewBox="0 0 90 18" fill="none" xmlns="http://www.w3.org/2000/svg">
<path d="M16.3638 2.95695C15.9541 1.98521 15.1318 1.24736 14.1217 0.945073C13.4626 0.780292 12.7838 0.708779 12.1049 0.732626H4.5956C3.91671 0.70878 3.23782 0.780292 2.57879 0.945073C1.56868 1.24736 0.746379 1.98521 0.336655 2.95695C0.0824285 3.71861 -0.0294535 4.52058 0.00660211 5.32276V12.8339C-0.0294576 13.6361 0.0824245 14.4381 0.336655 15.1998C0.746382 16.1715 1.56868 16.9094 2.57879 17.2117C3.23782 17.3764 3.91671 17.4479 4.5956 17.4241H12.1048C12.7837 17.4479 13.4626 17.3764 14.1216 17.2117C15.1318 16.9094 15.954 16.1715 16.3638 15.1998C16.618 14.4381 16.7299 13.6361 16.6938 12.8339V5.32276C16.7299 4.52058 16.618 3.71861 16.3638 2.95695Z" fill="white"/>
<path d="M8.20239 15.5149C11.0527 15.5149 13.3633 13.2071 13.3633 10.3603C13.3633 7.51352 11.0527 5.20575 8.20239 5.20575C5.35211 5.20575 3.0415 7.51352 3.0415 10.3603C3.0415 13.2071 5.35211 15.5149 8.20239 15.5149Z" fill="#FFCC00"/>
<path d="M10.7865 5.10621L10.7865 9.92836L10.7751 9.93216C10.7751 9.93421 10.7751 9.93627 10.7751 9.93833C10.7751 10.41 10.7409 10.8499 10.677 11.0745C10.3694 12.1543 9.37453 12.9376 8.1947 12.9376C6.76956 12.9376 5.62939 11.7875 5.62939 10.3641C5.62939 8.94071 6.76956 7.7906 8.1947 7.7906C8.8662 7.7906 9.47779 8.04677 9.93684 8.4666C10.0868 8.60377 10.2205 8.75841 10.3347 8.92729C10.303 8.77614 10.2718 8.58599 10.2718 8.42346V4.68627V2.62596L13.6305 3.65385V5.98172L10.7865 5.10621Z" fill="#FF3333"/>
<path fill-rule="evenodd" clip-rule="evenodd" d="M24.9747 10.2322H24.003L22.1508 14.3921H20.7996L22.834 9.94373C21.8775 9.4579 21.2398 8.57733 21.2398 6.95283C21.2398 4.6755 22.6822 3.53683 24.3977 3.53683H26.1437V14.3921H24.9747V10.2322ZM24.9747 9.26053V4.52368H24.3522C23.4109 4.52368 22.5 5.14615 22.5 6.95283C22.5 8.69879 23.335 9.26053 24.3522 9.26053H24.9747ZM37.8644 13.4205V15.8952H36.8016V14.3921H33.5223V15.8952H32.4595V13.4205H32.9301C33.6285 11.796 33.7044 9.42753 33.7044 7.39312V6.74028H37.2571V13.4205H37.8644ZM43.0111 13.8759C42.5253 14.2555 41.8876 14.4984 41.1285 14.4984C39.5496 14.4984 38.5779 13.2383 38.5779 10.885C38.5779 8.42551 39.2611 6.63401 40.8856 6.63401C42.1609 6.63401 42.996 7.59048 42.996 10.1866V10.8395H39.8077C39.8077 12.5702 40.2935 13.4812 41.2348 13.4812C41.9028 13.4812 42.4342 13.1775 42.7379 12.965L43.0111 13.8759ZM30.6073 6.74028H31.7763V14.3921H30.6073V10.9609H28.8461V14.3921H27.6619V6.74028H28.8461V9.98927H30.6073V6.74028ZM47.414 14.3921L45.3947 10.5814V14.3921H44.2105V6.74028H45.3947V10.2777L47.2318 6.74028H48.4312L46.5334 10.3385L48.7045 14.3921H47.414ZM51.4828 14.4984C49.8431 14.4984 48.8563 13.1775 48.8563 10.5662C48.8563 8.16741 49.7824 6.63401 51.5739 6.63401C52.2571 6.63401 52.6518 6.81619 52.9858 7.02874L52.8188 8.15223C52.5 7.87895 52.0445 7.62085 51.5587 7.62085C50.7085 7.62085 50.1012 8.57733 50.1012 10.5055C50.1012 12.4184 50.5567 13.5115 51.5132 13.5115C52.0901 13.5115 52.5304 13.2838 52.8037 13.0409L53.0769 13.9215C52.667 14.2707 52.1812 14.4984 51.4828 14.4984ZM36.088 13.4205V7.69676H34.7672V7.8334C34.7672 9.44271 34.6913 11.796 34.0536 13.4205H36.088ZM40.8856 7.60567C40.1569 7.60567 39.8988 8.50142 39.8229 9.86782H41.7814C41.7814 8.56215 41.5688 7.60567 40.8856 7.60567ZM57.419 4.75141C57.419 5.34352 57.4039 6.22409 57.3735 6.96801L57.0547 14.3921H56.4322L56.9029 3.53683H57.7379L59.3624 10.2322C59.499 10.7636 59.5749 11.2798 59.6205 11.7352H59.6508C59.6964 11.2798 59.7875 10.7636 59.9241 10.2322L61.5942 3.53683H62.4444L62.915 14.3921H62.1863L61.8674 6.90729C61.8219 6.05708 61.8371 5.40425 61.8371 4.73623H61.7915C61.7004 5.41943 61.5942 6.05708 61.4272 6.69473L59.9089 12.6917H59.3168L57.8138 6.69473C57.662 6.10263 57.5405 5.49534 57.4646 4.75141H57.419ZM64.661 16.8213C64.494 16.8213 64.3725 16.8061 64.2662 16.7909L64.1903 16.1229C64.3118 16.1533 64.4636 16.1836 64.661 16.1836C65.1772 16.1836 65.5415 15.6826 65.7693 14.8324L65.83 14.6047L63.9322 6.74028H64.6458L65.8604 11.7352C65.997 12.3122 66.1033 12.8739 66.1792 13.466H66.2247C66.331 12.8587 66.4525 12.297 66.5891 11.7352L67.7733 6.74028H68.411L66.4525 14.7869C66.1944 15.8192 65.7389 16.8213 64.661 16.8213ZM70.8249 14.5439C69.5952 14.5439 69.0031 13.6937 69.0031 13.6937L69.246 13.1016C69.246 13.1016 69.7622 13.9215 70.8098 13.9215C71.5992 13.9215 72.2369 13.3597 72.2369 12.2514C72.2369 11.2949 71.7662 10.6421 70.6276 10.6421H69.9899V10.0652H70.5517C71.4322 10.0652 72.0547 9.53381 72.0547 8.48623C72.0547 7.71194 71.6448 7.21093 70.9008 7.21093C70.2025 7.21093 69.7015 7.60567 69.3674 8.07632L69.1853 7.39312C69.5193 6.95283 70.081 6.58846 70.9008 6.58846C72.1002 6.58846 72.7379 7.34757 72.7379 8.47105C72.7379 9.21498 72.4343 9.89818 71.5992 10.3081C72.5557 10.6573 72.9656 11.4012 72.9656 12.2362C72.9656 13.7241 71.994 14.5439 70.8249 14.5439ZM74.2258 14.3921V6.74028H74.9393V9.57935H75.5011C76.9585 9.57935 77.8998 10.3688 77.8998 11.963C77.8998 13.5875 76.8978 14.3921 75.4555 14.3921H74.2258ZM79.4181 6.74028V14.3921H78.7197V6.74028H79.4181ZM75.4707 10.1411H74.9393V13.8304H75.3948C76.4727 13.8304 77.2015 13.299 77.2015 11.9781C77.2015 10.6877 76.5638 10.1411 75.4707 10.1411ZM81.832 10.4296V14.3921H81.1185V6.74028H81.832V10.3385L84.3978 6.74028H85.0962L82.576 10.2929L85.2784 14.3921H84.4889L81.832 10.4296ZM87.6468 13.967C88.3604 13.967 88.8614 13.2838 89.1347 12.464V10.3536H88.3148C87.0547 10.3536 86.4474 10.9306 86.4474 12.2666C86.4474 13.3445 86.9181 13.967 87.6468 13.967ZM89.3472 14.3921C89.2865 14.1947 89.2106 13.9063 89.165 13.3597C88.8007 14.0885 88.2541 14.5439 87.495 14.5439C86.4626 14.5439 85.749 13.7241 85.749 12.3273C85.749 10.6877 86.6448 9.83745 88.2997 9.83745H89.1347V8.88097C89.1347 7.71194 88.6944 7.21093 87.8594 7.21093C87.2065 7.21093 86.6144 7.51457 86.2501 8.04595L86.0527 7.36275C86.3563 6.96801 86.994 6.58846 87.8594 6.58846C89.1195 6.58846 89.8331 7.28684 89.8331 8.80506V12.9802C89.8331 13.5115 89.909 14.1037 90.0001 14.3921H89.3472Z" fill="black"/>
</svg>
