<svg width="80" height="13" viewBox="0 0 80 13" fill="none" xmlns="http://www.w3.org/2000/svg">
<path d="M16.2617 2.54319C16.0717 1.82959 15.5085 1.26703 14.7929 1.07439C13.4982 0.728149 8.30399 0.728149 8.30399 0.728149C8.30399 0.728149 3.11232 0.728149 1.81504 1.07439C1.10144 1.26447 0.53888 1.82767 0.34624 2.54319C0 3.83791 0 6.54062 0 6.54062C0 6.54062 0 9.24334 0.34624 10.5381C0.536319 11.2517 1.09952 11.8142 1.81504 12.0069C3.11232 12.3531 8.30399 12.3531 8.30399 12.3531C8.30399 12.3531 13.4982 12.3531 14.7929 12.0069C15.5065 11.8168 16.0691 11.2536 16.2617 10.5381C16.608 9.24334 16.608 6.54062 16.608 6.54062C16.608 6.54062 16.608 3.83791 16.2617 2.54319Z" fill="#FF0000"/>
<path d="M6.64429 4.04917V9.03221L10.9592 6.54069L6.64429 4.04917Z" fill="white"/>
<path d="M24.1063 11.3042C23.7787 11.0822 23.5438 10.7391 23.4062 10.2713C23.2686 9.80345 23.1975 9.18265 23.1975 8.40569V7.34905C23.1975 6.56441 23.2769 5.93529 23.4356 5.45977C23.5943 4.98425 23.8427 4.63801 24.178 4.42169C24.5134 4.20473 24.955 4.09401 25.5015 4.09401C26.0404 4.09401 26.4711 4.20474 26.7962 4.42681C27.1214 4.64889 27.3588 4.99513 27.5098 5.46489C27.6602 5.93529 27.7345 6.56377 27.7345 7.34585V8.40249C27.7345 9.17945 27.6602 9.80281 27.515 10.2732C27.3697 10.7436 27.1316 11.0898 26.8014 11.3062C26.4737 11.5231 26.027 11.6338 25.4644 11.6338C24.8884 11.637 24.434 11.5263 24.1063 11.3042ZM25.9476 10.1631C26.0372 9.92505 26.0852 9.53721 26.0852 9.00089V6.73145C26.0852 6.20857 26.0404 5.82777 25.9476 5.58457C25.858 5.34393 25.6967 5.22233 25.467 5.22233C25.2449 5.22233 25.0894 5.34393 24.9966 5.58457C24.907 5.82521 24.859 6.20793 24.859 6.73145V9.00089C24.859 9.53977 24.9012 9.92825 24.9882 10.1631C25.0753 10.4012 25.234 10.5196 25.4638 10.5196C25.6967 10.5196 25.8554 10.4006 25.9476 10.1631ZM49.33 8.42425V8.79161C49.33 9.25945 49.3434 9.60825 49.3722 9.84313C49.3985 10.0754 49.4567 10.2476 49.5437 10.3532C49.6308 10.4588 49.7658 10.5145 49.9482 10.5145C50.194 10.5145 50.3629 10.4191 50.4525 10.229C50.5421 10.039 50.5927 9.72153 50.6004 9.27801L52.0141 9.35993C52.0218 9.42329 52.025 9.51033 52.025 9.62169C52.025 10.2956 51.8401 10.7974 51.4727 11.1302C51.1053 11.463 50.585 11.6294 49.9111 11.6294C49.1028 11.6294 48.537 11.3759 48.2125 10.8684C47.8874 10.3609 47.7261 9.57881 47.7261 8.51705V7.24601C47.7261 6.15225 47.8951 5.35673 48.2305 4.85241C48.5658 4.35065 49.1418 4.09913 49.9585 4.09913C50.521 4.09913 50.9517 4.20217 51.2532 4.40825C51.5546 4.61433 51.7658 4.93433 51.89 5.37017C52.0116 5.80601 52.0749 6.40825 52.0749 7.17497V8.42233H49.33V8.42425ZM49.5386 5.35993C49.4567 5.46297 49.401 5.63193 49.3722 5.86425C49.3434 6.09657 49.33 6.45369 49.33 6.92665V7.44953H50.5294V6.92665C50.5294 6.45881 50.5133 6.10489 50.482 5.86425C50.45 5.62361 50.3924 5.45209 50.3105 5.35417C50.2285 5.25625 50.0993 5.20633 49.9245 5.20633C49.7498 5.20377 49.6205 5.25689 49.5386 5.35993ZM20.1166 8.28729L18.251 1.55258H19.8785L20.5313 4.60409C20.6977 5.35737 20.8193 5.99673 20.8987 6.52729H20.946C21.0017 6.14713 21.1233 5.51033 21.3134 4.61433L21.9899 1.54938H23.6174L21.7307 8.28665V11.518H20.1166V8.28729ZM33.026 4.23673V11.5154H31.7447L31.602 10.6252H31.5674C31.2186 11.2991 30.6958 11.6345 30.0007 11.6345C29.5175 11.6345 29.1604 11.4758 28.9306 11.159C28.7009 10.8422 28.587 10.3481 28.587 9.67417V4.23673H30.2247V9.58137C30.2247 9.90649 30.2593 10.1388 30.3303 10.2764C30.4014 10.414 30.5204 10.485 30.6868 10.485C30.8295 10.485 30.9671 10.4428 31.0964 10.3558C31.2257 10.2687 31.3236 10.1574 31.387 10.023V4.23673H33.026ZM41.433 4.23673V11.5154H40.1518L40.009 10.6252H39.9745C39.6257 11.2991 39.1028 11.6345 38.4078 11.6345C37.9246 11.6345 37.5674 11.4758 37.3377 11.159C37.1079 10.8422 36.994 10.3481 36.994 9.67417V4.23673H38.6318V9.58137C38.6318 9.90649 38.6663 10.1388 38.7374 10.2764C38.8084 10.414 38.9274 10.485 39.0938 10.485C39.2366 10.485 39.3742 10.4428 39.5034 10.3558C39.6327 10.2687 39.7306 10.1574 39.794 10.023V4.23673H41.433Z" fill="black"/>
<path d="M37.4805 2.87089H35.8529V11.516H34.2491V2.87089H32.6216V1.5525H37.4779V2.87089H37.4805ZM46.8571 5.40209C46.7566 4.94257 46.5979 4.60977 46.3764 4.40369C46.1544 4.19761 45.8504 4.09457 45.4625 4.09457C45.1611 4.09457 44.8814 4.17905 44.6197 4.35057C44.3579 4.51953 44.1576 4.74417 44.0149 5.02193H44.0014V1.18578H42.4213V11.5186H43.7742L43.9406 10.8293H43.9752C44.1019 11.075 44.292 11.2677 44.546 11.4104C44.7995 11.5531 45.0798 11.6242 45.3889 11.6242C45.9438 11.6242 46.3508 11.3682 46.612 10.8581C46.8737 10.348 47.003 9.55057 47.003 8.46449V7.31249C47.0049 6.49841 46.955 5.86161 46.8571 5.40209ZM45.3537 8.37169C45.3537 8.90289 45.3326 9.31761 45.2878 9.61905C45.2456 9.92049 45.1713 10.1342 45.0683 10.261C44.9652 10.3877 44.8277 10.451 44.6536 10.451C44.5185 10.451 44.3944 10.419 44.2785 10.3557C44.1646 10.2923 44.0699 10.197 43.9982 10.0702V5.93521C44.0539 5.73681 44.1486 5.57617 44.2837 5.44881C44.4187 5.32209 44.564 5.25873 44.722 5.25873C44.8884 5.25873 45.0177 5.32465 45.108 5.45393C45.1976 5.58321 45.2609 5.80529 45.298 6.11185C45.3326 6.42097 45.3512 6.85937 45.3512 7.43025V8.37105H45.3537V8.37169ZM54.274 11.6242H55.7275V3.44433L57.33 11.6242H58.6715L60.3483 3.25809V11.6344H61.7646V1.5525H59.4542L58.0193 9.51857L56.5102 1.5525H54.274V11.6242ZM66.05 11.6344H67.2052V4.23665H65.6398V10.0779C65.3787 10.5253 64.4475 10.8978 64.4475 10.0037V4.23729H62.882V10.2277C62.882 11.4949 64.5966 12.613 65.7889 10.7122L66.05 11.6344ZM73.2423 4.23665H74.6958V11.6344H73.2423V4.23665ZM74.0065 3.37009C73.5041 3.37009 73.0932 2.95921 73.0932 2.45681V2.23345C73.0932 1.73106 73.5041 1.32018 74.0065 1.32018C74.5089 1.32018 74.9198 1.73106 74.9198 2.23345V2.45681C74.9191 2.95921 74.5089 3.37009 74.0065 3.37009ZM70.8948 6.59377H72.162C72.1991 5.97873 72.2363 4.11569 70.2612 4.11569C68.6215 4.11569 68.1742 5.15889 68.1742 6.09073C68.1742 7.02257 68.6465 7.68049 69.9879 8.72433C71.131 9.32081 71.1803 10.6872 70.2363 10.6872C69.7889 10.6872 69.5156 10.389 69.5156 9.96657V9.29585H68.1742V10.0658C68.1742 10.7365 68.6215 11.7554 70.1863 11.7554C71.7518 11.7554 72.2983 10.8856 72.2983 9.54417C72.2983 8.20273 69.4663 6.88561 69.4663 5.96657C69.4663 4.89841 70.8763 5.01617 70.8763 5.79249L70.8948 6.59377ZM77.3665 5.99089C77.2174 7.68049 77.3415 8.97201 77.3915 9.79185C77.4593 10.908 78.6337 10.9099 78.6337 9.76689V8.94705H80.0001C80.0001 10.4376 79.4785 11.6549 78.0123 11.6549C76.2977 11.6549 75.8011 10.4376 75.8011 9.14545V6.98417C75.8011 5.24529 76.5467 4.07729 77.9623 4.07729C79.8503 4.07729 79.9003 5.41873 79.9003 6.04017V6.86001L78.6331 6.95921V5.96529C78.6337 5.27025 77.7639 4.64945 77.3665 5.99089Z" fill="black"/>
</svg>
