<svg width="33" height="27" viewBox="0 0 33 27" fill="none" xmlns="http://www.w3.org/2000/svg">
<path d="M32.2637 3.80615C31.0913 4.32815 29.842 4.67415 28.5395 4.84215C29.8794 4.03015 30.9021 2.75415 31.3829 1.21615C30.1336 1.97215 28.7543 2.50615 27.2843 2.80415C26.0981 1.52215 24.4075 0.728149 22.5631 0.728149C18.9847 0.728149 16.1039 3.67615 16.1039 7.29015C16.1039 7.81015 16.1472 8.31015 16.2537 8.78615C10.8802 8.52015 6.12544 5.90615 2.93131 1.92415C2.37367 2.90615 2.04657 4.03015 2.04657 5.24015C2.04657 7.51215 3.19929 9.52615 4.91754 10.6921C3.8791 10.6721 2.86037 10.3661 1.99731 9.88415C1.99731 9.90415 1.99731 9.93015 1.99731 9.95615C1.99731 13.1441 4.23773 15.7921 7.1757 16.4021C6.64958 16.5481 6.07618 16.6181 5.4811 16.6181C5.0673 16.6181 4.64956 16.5941 4.25743 16.5061C5.09488 19.1041 7.47127 21.0141 10.2969 21.0761C8.09788 22.8221 5.30572 23.8741 2.28302 23.8741C1.75297 23.8741 1.24459 23.8501 0.736206 23.7841C3.5993 25.6581 6.99245 26.7281 10.6516 26.7281C22.5454 26.7281 29.0479 16.7281 29.0479 8.06015C29.0479 7.77015 29.0381 7.49015 29.0243 7.21215C30.307 6.28815 31.3849 5.13415 32.2637 3.80615Z" fill="black"/>
</svg>
