<svg width="26" height="16" viewBox="0 0 26 16" fill="none" xmlns="http://www.w3.org/2000/svg">
<path d="M21.4817 8.82958C21.0775 8.30458 21.1932 8.07101 21.4817 7.60172C21.4869 7.59636 24.8235 2.85422 25.1673 1.24601L25.1693 1.24494C25.3402 0.658864 25.1693 0.228149 24.3433 0.228149H21.6098C20.914 0.228149 20.5931 0.597792 20.4213 1.01136C20.4213 1.01136 19.0295 4.43779 17.0607 6.65886C16.4253 7.30065 16.1315 7.50636 15.7846 7.50636C15.6138 7.50636 15.3482 7.30065 15.3482 6.71458V1.24494C15.3482 0.542078 15.1534 0.228149 14.5773 0.228149H10.2792C9.84277 0.228149 9.58339 0.556007 9.58339 0.861364C9.58339 1.52779 10.5678 1.68101 10.6699 3.55601V7.62422C10.6699 8.51565 10.5126 8.67958 10.1636 8.67958C9.23442 8.67958 6.97913 5.23922 5.64263 1.30172C5.37283 0.537792 5.10927 0.229221 4.40821 0.229221H1.67374C0.893503 0.229221 0.736206 0.598864 0.736206 1.01244C0.736206 1.74315 1.6654 5.37636 5.05719 10.1764C7.31768 13.4528 10.5011 15.2282 13.3971 15.2282C15.1377 15.2282 15.3503 14.8339 15.3503 14.1557C15.3503 11.0249 15.193 10.7292 16.0649 10.7292C16.469 10.7292 17.1649 10.9349 18.79 12.5153C20.6473 14.3892 20.9525 15.2282 21.9922 15.2282H24.7256C25.5048 15.2282 25.8996 14.8339 25.6725 14.056C25.1527 12.4199 21.6401 9.05458 21.4817 8.82958Z" fill="black"/>
</svg>
