<svg width="26" height="27" viewBox="0 0 26 27" fill="none" xmlns="http://www.w3.org/2000/svg">
<path fill-rule="evenodd" clip-rule="evenodd" d="M22.0937 4.50659C19.7436 2.07131 16.6182 0.729578 13.2885 0.728149C6.42735 0.728149 0.843378 6.50753 0.840618 13.6109C0.839698 15.8816 1.41281 18.0982 2.50216 20.052L0.736206 26.7281L7.33501 24.9365C9.15325 25.9631 11.2002 26.5041 13.2834 26.5047H13.2886C20.149 26.5047 25.7336 20.7249 25.7362 13.6212C25.7376 10.1785 24.444 6.94171 22.0937 4.50659ZM13.2885 24.3289H13.2842C11.4278 24.3281 9.60708 23.8117 8.01837 22.8362L7.64074 22.6041L3.7249 23.6673L4.7701 19.7157L4.52401 19.3106C3.48833 17.6056 2.94143 15.635 2.94235 13.6117C2.9445 7.70756 7.58585 2.90413 13.2926 2.90413C16.0561 2.90508 18.6538 4.02036 20.6071 6.04447C22.5605 8.06858 23.6355 10.759 23.6346 13.6204C23.6322 19.525 18.9911 24.3289 13.2885 24.3289ZM18.9635 16.3088C18.6526 16.1476 17.1234 15.369 16.8382 15.2614C16.5533 15.154 16.3457 15.1005 16.1386 15.4227C15.9311 15.7448 15.3352 16.47 15.1536 16.6847C14.9721 16.8996 14.7909 16.9266 14.4798 16.7653C14.1687 16.6043 13.1666 16.2642 11.9785 15.1675C11.054 14.3139 10.4298 13.2597 10.2483 12.9375C10.067 12.6151 10.2467 12.4577 10.3847 12.2806C10.7214 11.8478 11.0586 11.3941 11.1622 11.1794C11.266 10.9645 11.214 10.7765 11.1362 10.6154C11.0586 10.4543 10.4366 8.86981 10.1774 8.22505C9.92477 7.59758 9.66857 7.68232 9.47753 7.67248C9.2963 7.66312 9.08886 7.66122 8.88141 7.66122C8.67412 7.66122 8.33712 7.74167 8.05194 8.06414C7.76692 8.38644 6.96351 9.16514 6.96351 10.7497C6.96351 12.3342 8.07801 13.8649 8.23348 14.0798C8.38894 14.2947 10.4267 17.5463 13.5467 18.9405C14.2888 19.2725 14.868 19.4704 15.3198 19.6188C16.065 19.8638 16.7428 19.8292 17.2788 19.7464C17.8765 19.6538 19.1188 18.9675 19.3783 18.2156C19.6374 17.4636 19.6374 16.8191 19.5595 16.6847C19.4819 16.5505 19.2745 16.47 18.9635 16.3088Z" fill="black"/>
</svg>
