<svg width="133" height="51" viewBox="0 0 133 51" fill="none" xmlns="http://www.w3.org/2000/svg">
<path d="M5.39898 43.1932C5.34613 43.1047 5.31876 43.0034 5.31988 42.9003V0.625413C5.31957 0.57414 5.30581 0.523845 5.27998 0.479557C5.25414 0.435269 5.21713 0.39854 5.17265 0.373037C5.12817 0.347535 5.07777 0.334151 5.0265 0.334229C4.97522 0.334307 4.92487 0.347846 4.88047 0.373484L0.29295 3.00999C0.20354 3.06161 0.129357 3.13593 0.0779142 3.22544C0.0264712 3.31495 -0.000405251 3.41647 4.61867e-06 3.51971V45.818C-0.000520956 46.0236 0.0530236 46.2256 0.155265 46.4039L2.49882 50.4876C2.53747 50.5546 2.60105 50.6036 2.67569 50.6239C2.75032 50.6442 2.82996 50.6341 2.89723 50.596L7.71617 47.8101C7.7819 47.7709 7.82972 47.7077 7.84943 47.6338C7.86913 47.5599 7.85916 47.4812 7.82163 47.4146L5.39898 43.1932Z" fill="white"/>
<path d="M11.0792 13.5795L15.6668 10.943C15.7557 10.8916 15.8296 10.8178 15.8811 10.7288C15.9325 10.6399 15.9596 10.5389 15.9597 10.4362V5.94536C15.9594 5.89409 15.9456 5.84379 15.9198 5.7995C15.894 5.75522 15.8569 5.71849 15.8125 5.69298C15.768 5.66748 15.7176 5.6541 15.6663 5.65418C15.615 5.65425 15.5647 5.66778 15.5203 5.69342L10.9328 8.32993C10.8434 8.38155 10.7692 8.45588 10.7177 8.54539C10.6663 8.6349 10.6394 8.73642 10.6398 8.83966V13.3159C10.638 13.3681 10.6503 13.4199 10.6752 13.4658C10.7002 13.5118 10.737 13.5502 10.7819 13.5771C10.8267 13.604 10.8779 13.6184 10.9302 13.6188C10.9825 13.6193 11.034 13.6057 11.0792 13.5795Z" fill="white"/>
<path d="M58.5217 43.0643V35.2076C58.5218 35.0536 58.4916 34.9012 58.4328 34.7589C58.3739 34.6167 58.2877 34.4874 58.1789 34.3785L53.1988 29.3985L58.1789 24.4184C58.2877 24.3095 58.3739 24.1802 58.4328 24.038C58.4916 23.8957 58.5218 23.7433 58.5217 23.5894V16.5968C58.5213 16.5455 58.5076 16.4952 58.4817 16.4509C58.4559 16.4066 58.4189 16.3699 58.3744 16.3444C58.3299 16.3189 58.2795 16.3055 58.2283 16.3056C58.177 16.3057 58.1266 16.3192 58.0822 16.3448L53.4947 18.9813C53.4053 19.033 53.3311 19.1073 53.2797 19.1968C53.2282 19.2863 53.2014 19.3878 53.2018 19.4911V26.2288C53.2018 26.3061 53.1866 26.3827 53.1569 26.4541C53.1273 26.5255 53.0838 26.5903 53.0289 26.6448L47.8819 31.7918V0.625413C47.8816 0.57414 47.8678 0.523845 47.842 0.479557C47.8162 0.435269 47.7791 0.39854 47.7347 0.373037C47.6902 0.347535 47.6398 0.334151 47.5885 0.334229C47.5372 0.334307 47.4869 0.347846 47.4425 0.373484L42.855 3.00999C42.7656 3.06161 42.6914 3.13593 42.6399 3.22544C42.5885 3.31495 42.5616 3.41647 42.562 3.51971V45.818C42.5615 46.0236 42.615 46.2256 42.7173 46.4039L45.0608 50.4759C45.0997 50.5378 45.1603 50.5829 45.2308 50.6025C45.3013 50.622 45.3765 50.6144 45.4417 50.5813L50.2753 47.7895C50.3374 47.7502 50.3825 47.6888 50.4015 47.6177C50.4205 47.5466 50.412 47.4709 50.3778 47.4058L47.9493 43.1991C47.8987 43.1098 47.8724 43.0088 47.8731 42.9061V34.7037L48.8486 33.7311C48.8758 33.7037 48.9082 33.6819 48.9439 33.667C48.9796 33.6521 49.0179 33.6445 49.0566 33.6445C49.0953 33.6445 49.1336 33.6521 49.1693 33.667C49.205 33.6819 49.2374 33.7037 49.2646 33.7311L53.0201 37.4896C53.1302 37.599 53.1923 37.7475 53.193 37.9027V46.1051L55.6889 50.4319C55.7275 50.4989 55.7911 50.5479 55.8657 50.5682C55.9404 50.5885 56.02 50.5785 56.0873 50.5403C57.3909 49.7874 59.6026 48.4897 60.9121 47.7573C60.9743 47.7179 61.0193 47.6566 61.0383 47.5855C61.0573 47.5144 61.0489 47.4387 61.0146 47.3736L58.5217 43.0643Z" fill="white"/>
<path d="M70.9511 14.2972C70.9965 14.252 71.0555 14.2229 71.119 14.2145C71.1824 14.206 71.247 14.2186 71.3026 14.2503L74.3346 16.008C74.3791 16.0337 74.4297 16.0472 74.4811 16.0472C74.5325 16.0472 74.583 16.0337 74.6275 16.008L79.3615 13.2777C79.4066 13.2522 79.4441 13.2151 79.4702 13.1703C79.4963 13.1256 79.51 13.0747 79.51 13.0228C79.51 12.971 79.4963 12.9201 79.4702 12.8754C79.4441 12.8306 79.4066 12.7935 79.3615 12.768L74.6305 10.0319C74.5859 10.0062 74.5354 9.99262 74.484 9.99262C74.4326 9.99262 74.3821 10.0062 74.3375 10.0319L69.1612 13.017V0.625413C69.1609 0.57414 69.1471 0.523845 69.1213 0.479557C69.0954 0.435269 69.0584 0.39854 69.014 0.373037C68.9695 0.347535 68.9191 0.334151 68.8678 0.334229C68.8165 0.334307 68.7662 0.347846 68.7218 0.373484L64.1343 3.00999C64.0448 3.06161 63.9707 3.13593 63.9192 3.22544C63.8678 3.31495 63.8409 3.41647 63.8413 3.51971V45.818C63.8407 46.024 63.8953 46.2263 63.9995 46.4039L66.3431 50.4612C66.3821 50.5254 66.4443 50.5721 66.5168 50.5917C66.5893 50.6114 66.6666 50.6024 66.7327 50.5667L71.5575 47.7895C71.6212 47.75 71.6673 47.6876 71.6864 47.6152C71.7054 47.5427 71.696 47.4657 71.66 47.3999L69.2432 43.2108C69.1905 43.1223 69.1631 43.0209 69.1641 42.9179V16.087L70.9511 14.2972Z" fill="white"/>
<path d="M16.0386 43.1933C15.9859 43.1048 15.9586 43.0034 15.9595 42.9004V16.5939C15.9592 16.5426 15.9455 16.4924 15.9196 16.4481C15.8938 16.4038 15.8568 16.367 15.8123 16.3415C15.7678 16.316 15.7174 16.3027 15.6661 16.3027C15.6149 16.3028 15.5645 16.3163 15.5201 16.342L10.9326 18.9785C10.8432 19.0301 10.769 19.1044 10.7176 19.1939C10.6661 19.2835 10.6392 19.385 10.6397 19.4882V45.8093C10.639 46.0152 10.6937 46.2176 10.7978 46.3952L13.1414 50.4701C13.1805 50.5366 13.2443 50.585 13.3189 50.6047C13.3935 50.6244 13.4729 50.614 13.5398 50.5755L18.3558 47.7955C18.3891 47.7761 18.4183 47.7503 18.4417 47.7196C18.465 47.689 18.4821 47.654 18.4919 47.6167C18.5017 47.5794 18.504 47.5406 18.4988 47.5024C18.4935 47.4642 18.4808 47.4274 18.4613 47.3941L16.0386 43.1933Z" fill="white"/>
<path d="M37.3185 43.1933C37.2657 43.1048 37.2383 43.0034 37.2394 42.9003V21.8903C37.2396 21.7364 37.2093 21.584 37.1505 21.4417C37.0917 21.2995 37.0055 21.1702 36.8967 21.0613L32.0777 16.2453C32.0323 16.2001 31.9734 16.1711 31.9099 16.1626C31.8464 16.1541 31.7819 16.1667 31.7262 16.1984C30.7741 16.7521 26.5997 19.1571 26.5997 19.1601V16.5968C26.5994 16.5455 26.5856 16.4952 26.5598 16.451C26.5339 16.4067 26.4969 16.3699 26.4524 16.3444C26.408 16.3189 26.3576 16.3055 26.3063 16.3056C26.255 16.3057 26.2047 16.3192 26.1603 16.3449L21.5727 18.9814C21.4833 19.033 21.4091 19.1073 21.3577 19.1968C21.3063 19.2863 21.2794 19.3879 21.2798 19.4911V45.8122C21.2792 46.0181 21.3338 46.2205 21.438 46.3981L23.7815 50.47C23.8202 50.537 23.8838 50.586 23.9584 50.6063C24.033 50.6267 24.1127 50.6166 24.1799 50.5784L29.0106 47.7896C29.0728 47.7502 29.1178 47.6889 29.1368 47.6177C29.1558 47.5466 29.1474 47.471 29.1131 47.4058C28.6298 46.5709 27.0479 43.826 26.6788 43.1845C26.6259 43.096 26.5985 42.9946 26.5997 42.8915V21.407L27.833 20.6922C27.8889 20.6598 27.9541 20.6468 28.0182 20.6553C28.0823 20.6637 28.1418 20.6932 28.1874 20.7391L31.7467 24.3013C31.8567 24.4106 31.9189 24.5592 31.9196 24.7143V45.8064C31.919 46.0119 31.9726 46.2139 32.0748 46.3922L34.4184 50.4642C34.457 50.5312 34.5206 50.5802 34.5952 50.6005C34.6699 50.6208 34.7495 50.6108 34.8168 50.5726L39.6269 47.7896C39.6934 47.7505 39.7418 47.6867 39.7616 47.6121C39.7813 47.5375 39.7708 47.4581 39.7324 47.3912L37.3185 43.1933Z" fill="white"/>
<path d="M85.2823 16.2452C85.2367 16.1994 85.1772 16.1699 85.1131 16.1615C85.049 16.153 84.9838 16.166 84.9279 16.1984L80.1382 18.9638C79.9166 19.0919 79.7127 19.2485 79.5318 19.4296L74.8271 24.1343C74.7183 24.2432 74.6321 24.3724 74.5733 24.5147C74.5145 24.6569 74.4843 24.8094 74.4844 24.9633V44.9333C74.4843 45.0873 74.5145 45.2397 74.5733 45.382C74.6321 45.5242 74.7183 45.6535 74.8271 45.7624L79.6461 50.5813C79.6911 50.627 79.7499 50.6565 79.8134 50.6655C79.8769 50.6745 79.9416 50.6624 79.9976 50.6311L84.8019 47.854C85.0209 47.7259 85.2227 47.5703 85.4024 47.3912L90.1042 42.704C90.3232 42.4848 90.4464 42.1878 90.4469 41.8779V21.8903C90.4464 21.5804 90.3232 21.2834 90.1042 21.0642L85.2823 16.2452ZM85.1241 45.0945C85.124 45.1972 85.0969 45.2981 85.0455 45.3871C84.9941 45.476 84.9202 45.5499 84.8312 45.6013L83.9084 46.1344C83.8528 46.1661 83.7882 46.1787 83.7248 46.1702C83.6613 46.1618 83.6023 46.1327 83.5569 46.0875L79.9712 42.5165C79.9169 42.4618 79.874 42.3969 79.8448 42.3255C79.8157 42.2541 79.8009 42.1777 79.8013 42.1006V21.7438C79.8009 21.6406 79.8278 21.5391 79.8792 21.4496C79.9307 21.36 80.0049 21.2857 80.0943 21.2341L81.0317 20.6951C81.0874 20.6634 81.1519 20.6508 81.2154 20.6593C81.2788 20.6677 81.3378 20.6968 81.3832 20.742L84.9513 24.3071C85.0061 24.3616 85.0496 24.4264 85.0793 24.4978C85.109 24.5692 85.1242 24.6458 85.1241 24.7231V45.0945Z" fill="white"/>
<path d="M111.802 43.2079C111.75 43.1193 111.722 43.018 111.723 42.9149V21.8932C111.723 21.7393 111.693 21.5869 111.634 21.4446C111.576 21.3024 111.489 21.1731 111.381 21.0642L106.562 16.2452C106.516 16.1994 106.456 16.1699 106.392 16.1615C106.328 16.153 106.263 16.166 106.207 16.1984L101.084 19.16V16.5939C101.083 16.5426 101.069 16.4923 101.044 16.448C101.018 16.4037 100.981 16.367 100.936 16.3415C100.892 16.316 100.841 16.3026 100.79 16.3027C100.739 16.3027 100.689 16.3163 100.644 16.3419L96.0596 18.9784C95.9706 19.0298 95.8967 19.1037 95.8452 19.1926C95.7938 19.2816 95.7667 19.3825 95.7666 19.4852V45.8005C95.766 46.0064 95.8206 46.2087 95.9248 46.3863L98.2684 50.4261C98.307 50.4931 98.3706 50.5421 98.4452 50.5624C98.5198 50.5827 98.5995 50.5726 98.6668 50.5344L103.474 47.7573C103.54 47.7182 103.589 47.6544 103.609 47.5798C103.628 47.5052 103.618 47.4258 103.579 47.3589L101.177 43.1932C101.125 43.1047 101.097 43.0034 101.098 42.9003V21.404L102.323 20.6951C102.379 20.6627 102.444 20.6497 102.508 20.6582C102.572 20.6666 102.632 20.6961 102.677 20.742L106.245 24.31C106.3 24.3645 106.344 24.4293 106.373 24.5007C106.403 24.5721 106.418 24.6487 106.418 24.726V45.818C106.417 46.024 106.472 46.2263 106.576 46.4039L108.891 50.4261C108.929 50.4931 108.993 50.5421 109.067 50.5624C109.142 50.5827 109.222 50.5726 109.289 50.5344L114.096 47.7603C114.163 47.7211 114.211 47.6573 114.231 47.5827C114.251 47.5081 114.24 47.4288 114.202 47.3619L111.802 43.2079Z" fill="white"/>
<path d="M132.567 39.9386L127.979 42.5751C127.89 42.6268 127.815 42.7011 127.764 42.7906C127.713 42.8801 127.686 42.9816 127.686 43.0849V45.0857C127.686 45.1884 127.659 45.2893 127.607 45.3783C127.556 45.4672 127.482 45.5411 127.393 45.5925L126.459 46.1315C126.403 46.1632 126.339 46.1758 126.275 46.1673C126.212 46.1588 126.153 46.1298 126.107 46.0846L122.53 42.5165C122.476 42.4618 122.433 42.3969 122.404 42.3255C122.375 42.2541 122.36 42.1777 122.36 42.1006V37.3431L132.66 27.0373C132.768 26.9298 132.854 26.802 132.912 26.6612C132.971 26.5204 133 26.3695 133 26.2171V21.8932C133 21.7393 132.97 21.5869 132.911 21.4446C132.852 21.3024 132.766 21.1731 132.657 21.0642L127.838 16.2452C127.793 16.1994 127.733 16.1699 127.669 16.1615C127.605 16.153 127.54 16.166 127.484 16.1984L122.694 18.9638C122.473 19.0919 122.269 19.2485 122.088 19.4296L117.383 24.1343C117.274 24.2432 117.188 24.3724 117.129 24.5147C117.071 24.6569 117.04 24.8094 117.041 24.9633V44.9451C117.04 45.099 117.071 45.2514 117.129 45.3937C117.188 45.5359 117.274 45.6652 117.383 45.7741L122.19 50.5813C122.236 50.6265 122.295 50.6555 122.358 50.664C122.422 50.6725 122.486 50.6599 122.542 50.6282L127.352 47.8686C127.576 47.7396 127.782 47.582 127.964 47.3999L132.652 42.7128C132.76 42.6039 132.847 42.4746 132.905 42.3324C132.964 42.1902 132.994 42.0377 132.994 41.8838V40.1994C132.994 40.149 132.982 40.0995 132.957 40.0556C132.932 40.0116 132.897 39.9748 132.854 39.9486C132.811 39.9224 132.762 39.9077 132.712 39.906C132.661 39.9042 132.611 39.9155 132.567 39.9386ZM122.366 21.7438C122.366 21.6406 122.393 21.5391 122.444 21.4496C122.496 21.36 122.57 21.2857 122.659 21.2341L123.588 20.698C123.644 20.6656 123.709 20.6526 123.773 20.6611C123.837 20.6696 123.897 20.699 123.942 20.7449L127.51 24.3188C127.62 24.4282 127.683 24.5767 127.683 24.7319V28.8331C127.683 28.9104 127.668 28.987 127.638 29.0584C127.609 29.1297 127.565 29.1946 127.51 29.2491L122.864 33.8981C122.823 33.9392 122.771 33.9674 122.715 33.9789C122.658 33.9904 122.599 33.9849 122.545 33.9629C122.492 33.941 122.446 33.9036 122.413 33.8556C122.381 33.8075 122.364 33.751 122.363 33.693L122.366 21.7438Z" fill="white"/>
</svg>
