<svg width="135" height="52" viewBox="0 0 135 52" fill="none" xmlns="http://www.w3.org/2000/svg">
<path d="M6.39898 43.859C6.34613 43.7705 6.31876 43.6691 6.31988 43.5661V1.29118C6.31957 1.23991 6.30581 1.18962 6.27998 1.14533C6.25414 1.10104 6.21713 1.06431 6.17265 1.03881C6.12817 1.01331 6.07777 0.999922 6.0265 1C5.97522 1.00008 5.92487 1.01362 5.88047 1.03926L1.29295 3.67576C1.20354 3.72738 1.12936 3.8017 1.07791 3.89121C1.02647 3.98072 0.999595 4.08224 1 4.18548V46.4838C0.999479 46.6893 1.05302 46.8914 1.15527 47.0697L3.49882 51.1533C3.53747 51.2203 3.60105 51.2693 3.67569 51.2897C3.75032 51.31 3.82996 51.2999 3.89723 51.2617L8.71617 48.4758C8.7819 48.4367 8.82972 48.3734 8.84943 48.2996C8.86913 48.2257 8.85916 48.147 8.82163 48.0803L6.39898 43.859Z" stroke="black"/>
<path d="M12.0792 14.2453L16.6668 11.6088C16.7557 11.5574 16.8296 11.4835 16.8811 11.3946C16.9325 11.3056 16.9596 11.2047 16.9597 11.102V6.61113C16.9594 6.55986 16.9456 6.50956 16.9198 6.46527C16.894 6.42099 16.8569 6.38426 16.8125 6.35876C16.768 6.33325 16.7176 6.31987 16.6663 6.31995C16.615 6.32002 16.5647 6.33356 16.5203 6.35919L11.9328 8.9957C11.8434 9.04732 11.7692 9.12165 11.7177 9.21116C11.6663 9.30067 11.6394 9.40219 11.6398 9.50543V13.9816C11.638 14.0339 11.6503 14.0857 11.6752 14.1316C11.7002 14.1776 11.737 14.216 11.7819 14.2429C11.8267 14.2698 11.8779 14.2842 11.9302 14.2846C11.9825 14.285 12.034 14.2715 12.0792 14.2453V14.2453Z" stroke="black"/>
<path d="M59.5217 43.7301V35.8733C59.5218 35.7194 59.4916 35.567 59.4328 35.4247C59.3739 35.2825 59.2877 35.1532 59.1789 35.0443L54.1988 30.0642L59.1789 25.0842C59.2877 24.9753 59.3739 24.846 59.4328 24.7037C59.4916 24.5615 59.5218 24.4091 59.5217 24.2551V17.2625C59.5213 17.2113 59.5076 17.161 59.4817 17.1167C59.4559 17.0724 59.4189 17.0357 59.3744 17.0102C59.3299 16.9847 59.2795 16.9713 59.2283 16.9714C59.177 16.9714 59.1266 16.985 59.0822 17.0106L54.4947 19.6471C54.4053 19.6987 54.3311 19.7731 54.2797 19.8626C54.2282 19.9521 54.2014 20.0536 54.2018 20.1568V26.8946C54.2018 26.9719 54.1866 27.0484 54.1569 27.1198C54.1273 27.1912 54.0838 27.256 54.0289 27.3106L48.8819 32.4576V1.29118C48.8816 1.23991 48.8678 1.18962 48.842 1.14533C48.8162 1.10104 48.7791 1.06431 48.7347 1.03881C48.6902 1.01331 48.6398 0.999922 48.5885 1C48.5372 1.00008 48.4869 1.01362 48.4425 1.03926L43.855 3.67576C43.7656 3.72738 43.6914 3.8017 43.6399 3.89121C43.5885 3.98072 43.5616 4.08224 43.562 4.18548V46.4838C43.5615 46.6893 43.615 46.8914 43.7173 47.0697L46.0608 51.1416C46.0997 51.2036 46.1603 51.2487 46.2308 51.2682C46.3013 51.2877 46.3765 51.2802 46.4417 51.2471L51.2753 48.4553C51.3374 48.4159 51.3825 48.3546 51.4015 48.2835C51.4205 48.2124 51.412 48.1367 51.3778 48.0716L48.9493 43.8649C48.8987 43.7756 48.8724 43.6746 48.8731 43.5719V35.3695L49.8486 34.3969C49.8758 34.3694 49.9082 34.3476 49.9439 34.3328C49.9796 34.3179 50.0179 34.3102 50.0566 34.3102C50.0953 34.3102 50.1336 34.3179 50.1693 34.3328C50.205 34.3476 50.2374 34.3694 50.2646 34.3969L54.0201 38.1554C54.1302 38.2647 54.1923 38.4133 54.193 38.5684V46.7709L56.6889 51.0977C56.7275 51.1647 56.7911 51.2137 56.8657 51.234C56.9404 51.2543 57.02 51.2443 57.0873 51.2061C58.3909 50.4532 60.6026 49.1555 61.9121 48.4231C61.9743 48.3837 62.0193 48.3223 62.0383 48.2512C62.0573 48.1801 62.0489 48.1045 62.0146 48.0393L59.5217 43.7301Z" stroke="black"/>
<path d="M71.9511 14.9629C71.9965 14.9178 72.0555 14.8887 72.119 14.8803C72.1824 14.8718 72.247 14.8844 72.3026 14.9161L75.3346 16.6737C75.3791 16.6994 75.4297 16.713 75.4811 16.713C75.5325 16.713 75.583 16.6994 75.6275 16.6737L80.3615 13.9435C80.4066 13.9179 80.4441 13.8809 80.4702 13.8361C80.4963 13.7913 80.51 13.7404 80.51 13.6886C80.51 13.6368 80.4963 13.5859 80.4702 13.5411C80.4441 13.4964 80.4066 13.4593 80.3615 13.4338L75.6305 10.6976C75.5859 10.6719 75.5354 10.6584 75.484 10.6584C75.4326 10.6584 75.3821 10.6719 75.3375 10.6976L70.1612 13.6828V1.29118C70.1609 1.23991 70.1471 1.18962 70.1213 1.14533C70.0954 1.10104 70.0584 1.06431 70.014 1.03881C69.9695 1.01331 69.9191 0.999922 69.8678 1C69.8165 1.00008 69.7662 1.01362 69.7218 1.03926L65.1343 3.67576C65.0448 3.72738 64.9707 3.8017 64.9192 3.89121C64.8678 3.98072 64.8409 4.08224 64.8413 4.18548V46.4838C64.8407 46.6897 64.8953 46.8921 64.9995 47.0697L67.3431 51.127C67.3821 51.1912 67.4443 51.2379 67.5168 51.2575C67.5893 51.2771 67.6666 51.2682 67.7327 51.2324L72.5575 48.4553C72.6212 48.4158 72.6673 48.3534 72.6864 48.2809C72.7054 48.2085 72.696 48.1314 72.66 48.0657L70.2432 43.8766C70.1905 43.788 70.1631 43.6867 70.1641 43.5836V16.7528L71.9511 14.9629Z" stroke="black"/>
<path d="M17.0386 43.8591C16.9859 43.7705 16.9586 43.6692 16.9595 43.5661V17.2597C16.9592 17.2084 16.9455 17.1581 16.9196 17.1138C16.8938 17.0695 16.8568 17.0328 16.8123 17.0073C16.7678 16.9818 16.7174 16.9684 16.6661 16.9685C16.6149 16.9686 16.5645 16.9821 16.5201 17.0078L11.9326 19.6443C11.8432 19.6959 11.769 19.7702 11.7176 19.8597C11.6661 19.9492 11.6392 20.0507 11.6397 20.154V46.4751C11.639 46.681 11.6937 46.8833 11.7978 47.061L14.1414 51.1358C14.1805 51.2023 14.2443 51.2507 14.3189 51.2705C14.3935 51.2902 14.4729 51.2797 14.5398 51.2413L19.3558 48.4612C19.3891 48.4419 19.4183 48.4161 19.4417 48.3854C19.465 48.3547 19.4821 48.3198 19.4919 48.2825C19.5017 48.2452 19.504 48.2063 19.4988 48.1682C19.4935 48.13 19.4808 48.0932 19.4613 48.0599L17.0386 43.8591Z" stroke="black"/>
<path d="M38.3185 43.8591C38.2657 43.7706 38.2383 43.6692 38.2394 43.5661V22.5561C38.2396 22.4022 38.2093 22.2497 38.1505 22.1075C38.0917 21.9652 38.0055 21.836 37.8967 21.7271L33.0777 16.9111C33.0323 16.8659 32.9734 16.8368 32.9099 16.8284C32.8464 16.8199 32.7819 16.8325 32.7262 16.8642C31.7741 17.4178 27.5997 19.8229 27.5997 19.8258V17.2626C27.5994 17.2113 27.5856 17.161 27.5598 17.1167C27.5339 17.0724 27.4969 17.0357 27.4524 17.0102C27.408 16.9847 27.3576 16.9713 27.3063 16.9714C27.255 16.9715 27.2047 16.985 27.1603 17.0107L22.5727 19.6472C22.4833 19.6988 22.4091 19.7731 22.3577 19.8626C22.3063 19.9521 22.2794 20.0536 22.2798 20.1569V46.478C22.2792 46.6839 22.3338 46.8862 22.438 47.0639L24.7815 51.1358C24.8202 51.2028 24.8838 51.2518 24.9584 51.2721C25.033 51.2924 25.1127 51.2824 25.1799 51.2442L30.0106 48.4554C30.0728 48.416 30.1178 48.3546 30.1368 48.2835C30.1558 48.2124 30.1474 48.1368 30.1131 48.0716C29.6298 47.2367 28.0479 44.4918 27.6788 43.8503C27.6259 43.7618 27.5985 43.6604 27.5997 43.5573V22.0727L28.833 21.358C28.8889 21.3255 28.9541 21.3126 29.0182 21.321C29.0823 21.3295 29.1418 21.359 29.1874 21.4048L32.7467 24.967C32.8567 25.0764 32.9189 25.225 32.9196 25.3801V46.4721C32.919 46.6777 32.9726 46.8797 33.0748 47.058L35.4184 51.1299C35.457 51.197 35.5206 51.246 35.5952 51.2663C35.6699 51.2866 35.7495 51.2765 35.8168 51.2383L40.6269 48.4554C40.6934 48.4162 40.7418 48.3524 40.7616 48.2778C40.7813 48.2032 40.7708 48.1239 40.7324 48.057L38.3185 43.8591Z" stroke="black"/>
<path d="M86.2823 16.911C86.2367 16.8652 86.1772 16.8357 86.1131 16.8272C86.049 16.8188 85.9838 16.8317 85.9279 16.8641L81.1382 19.6295C80.9166 19.7577 80.7127 19.9142 80.5318 20.0953L75.8271 24.8C75.7183 24.9089 75.6321 25.0382 75.5733 25.1804C75.5145 25.3227 75.4843 25.4751 75.4844 25.6291V45.5991C75.4843 45.753 75.5145 45.9055 75.5733 46.0477C75.6321 46.19 75.7183 46.3192 75.8271 46.4281L80.6461 51.2471C80.6911 51.2927 80.7499 51.3223 80.8134 51.3313C80.8769 51.3403 80.9416 51.3282 80.9976 51.2969L85.8019 48.5198C86.0209 48.3916 86.2227 48.2361 86.4024 48.0569L91.1042 43.3698C91.3232 43.1506 91.4464 42.8536 91.4469 42.5437V22.5561C91.4464 22.2462 91.3232 21.9492 91.1042 21.73L86.2823 16.911ZM86.1241 45.7602C86.124 45.863 86.0969 45.9639 86.0455 46.0528C85.9941 46.1418 85.9202 46.2157 85.8312 46.267L84.9084 46.8002C84.8528 46.8319 84.7882 46.8445 84.7248 46.836C84.6613 46.8275 84.6023 46.7985 84.5569 46.7533L80.9712 43.1823C80.9169 43.1276 80.874 43.0626 80.8448 42.9913C80.8157 42.9199 80.8009 42.8434 80.8013 42.7663V22.4096C80.8009 22.3064 80.8278 22.2048 80.8792 22.1153C80.9307 22.0258 81.0049 21.9515 81.0943 21.8999L82.0317 21.3609C82.0874 21.3292 82.1519 21.3166 82.2154 21.3251C82.2788 21.3335 82.3378 21.3626 82.3832 21.4077L85.9513 24.9729C86.0061 25.0274 86.0496 25.0922 86.0793 25.1636C86.109 25.235 86.1242 25.3115 86.1241 25.3888V45.7602Z" stroke="black"/>
<path d="M112.802 43.8737C112.75 43.7851 112.722 43.6838 112.723 43.5807V22.559C112.723 22.4051 112.693 22.2526 112.634 22.1104C112.576 21.9681 112.489 21.8389 112.381 21.73L107.562 16.911C107.516 16.8652 107.456 16.8357 107.392 16.8272C107.328 16.8188 107.263 16.8317 107.207 16.8641L102.084 19.8258V17.2596C102.083 17.2084 102.069 17.1581 102.044 17.1138C102.018 17.0695 101.981 17.0328 101.936 17.0073C101.892 16.9817 101.841 16.9684 101.79 16.9684C101.739 16.9685 101.689 16.9821 101.644 17.0077L97.0596 19.6442C96.9706 19.6956 96.8967 19.7694 96.8452 19.8584C96.7938 19.9473 96.7667 20.0482 96.7666 20.151V46.4662C96.766 46.6722 96.8206 46.8745 96.9248 47.0521L99.2684 51.0918C99.307 51.1588 99.3706 51.2078 99.4452 51.2281C99.5198 51.2484 99.5995 51.2384 99.6668 51.2002L104.474 48.4231C104.54 48.384 104.589 48.3202 104.609 48.2456C104.628 48.171 104.618 48.0916 104.579 48.0247L102.177 43.859C102.125 43.7705 102.097 43.6691 102.098 43.5661V22.0698L103.323 21.3609C103.379 21.3284 103.444 21.3155 103.508 21.3239C103.572 21.3324 103.632 21.3619 103.677 21.4077L107.245 24.9758C107.3 25.0303 107.344 25.0951 107.373 25.1665C107.403 25.2379 107.418 25.3145 107.418 25.3918V46.4838C107.417 46.6897 107.472 46.8921 107.576 47.0697L109.891 51.0918C109.929 51.1588 109.993 51.2078 110.067 51.2281C110.142 51.2484 110.222 51.2384 110.289 51.2002L115.096 48.426C115.163 48.3869 115.211 48.3231 115.231 48.2485C115.251 48.1739 115.24 48.0945 115.202 48.0276L112.802 43.8737Z" stroke="black"/>
<path d="M133.567 40.6044L128.979 43.2409C128.89 43.2925 128.815 43.3669 128.764 43.4564C128.713 43.5459 128.686 43.6474 128.686 43.7506V45.7514C128.686 45.8542 128.659 45.9551 128.607 46.044C128.556 46.133 128.482 46.2069 128.393 46.2582L127.459 46.7973C127.403 46.8289 127.339 46.8415 127.275 46.8331C127.212 46.8246 127.153 46.7956 127.107 46.7504L123.53 43.1823C123.476 43.1276 123.433 43.0626 123.404 42.9913C123.375 42.9199 123.36 42.8434 123.36 42.7663V38.0089L133.66 27.7031C133.768 27.5956 133.854 27.4678 133.912 27.327C133.971 27.1862 134 27.0352 134 26.8829V22.559C134 22.4051 133.97 22.2526 133.911 22.1104C133.852 21.9681 133.766 21.8389 133.657 21.73L128.838 16.911C128.793 16.8652 128.733 16.8357 128.669 16.8272C128.605 16.8188 128.54 16.8317 128.484 16.8641L123.694 19.6295C123.473 19.7577 123.269 19.9142 123.088 20.0953L118.383 24.8C118.274 24.9089 118.188 25.0382 118.129 25.1804C118.071 25.3227 118.04 25.4751 118.041 25.6291V45.6108C118.04 45.7648 118.071 45.9172 118.129 46.0594C118.188 46.2017 118.274 46.331 118.383 46.4399L123.19 51.2471C123.236 51.2923 123.295 51.3213 123.358 51.3298C123.422 51.3382 123.486 51.3257 123.542 51.294L128.352 48.5344C128.576 48.4054 128.782 48.2478 128.964 48.0657L133.652 43.3786C133.76 43.2697 133.847 43.1404 133.905 42.9982C133.964 42.8559 133.994 42.7035 133.994 42.5496V40.8651C133.994 40.8148 133.982 40.7653 133.957 40.7213C133.932 40.6774 133.897 40.6406 133.854 40.6144C133.811 40.5882 133.762 40.5735 133.712 40.5717C133.661 40.57 133.611 40.5812 133.567 40.6044V40.6044ZM123.366 22.4096C123.366 22.3064 123.393 22.2048 123.444 22.1153C123.496 22.0258 123.57 21.9515 123.659 21.8999L124.588 21.3638C124.644 21.3314 124.709 21.3184 124.773 21.3269C124.837 21.3353 124.897 21.3648 124.942 21.4107L128.51 24.9846C128.62 25.094 128.683 25.2425 128.683 25.3976V29.4989C128.683 29.5762 128.668 29.6527 128.638 29.7241C128.609 29.7955 128.565 29.8603 128.51 29.9148L123.864 34.5639C123.823 34.605 123.771 34.6331 123.715 34.6447C123.658 34.6562 123.599 34.6506 123.545 34.6287C123.492 34.6068 123.446 34.5694 123.413 34.5214C123.381 34.4733 123.364 34.4168 123.363 34.3588L123.366 22.4096Z" stroke="black"/>
</svg>
