<svg width="35" height="36" viewBox="0 0 35 36" fill="current"
  xmlns="http://www.w3.org/2000/svg">
  <path d="M30.1454 5.71431C26.8419 2.2661 22.2711 0.3201 17.4957 0.328887C7.8453 0.316732 0.0121686 8.1301 1.38542e-05 17.7806C-0.00599029 22.5524 1.93979 27.1191 5.38544 30.4203C5.39547 30.4302 5.3992 30.4452 5.40916 30.454C5.51035 30.5515 5.62033 30.634 5.72284 30.7277C6.00401 30.9776 6.28518 31.2363 6.58136 31.4775C6.74003 31.6025 6.90499 31.7274 7.06747 31.8424C7.3474 32.051 7.62732 32.2597 7.91969 32.4522C8.11842 32.5772 8.32336 32.7021 8.52699 32.8271C8.79688 32.9896 9.06561 33.1532 9.34429 33.3019C9.5805 33.4269 9.82162 33.5344 10.0616 33.6481C10.324 33.7731 10.5827 33.898 10.8513 34.0104C11.12 34.1229 11.3899 34.2104 11.6623 34.3079C11.9347 34.4053 12.1697 34.4953 12.4309 34.5753C12.7258 34.664 13.0282 34.7327 13.3281 34.8064C13.578 34.8676 13.8204 34.9376 14.0779 34.9876C14.4228 35.0564 14.7727 35.1001 15.1226 35.1476C15.3388 35.1777 15.55 35.2201 15.7686 35.2414C16.341 35.2976 16.9183 35.3289 17.5006 35.3289C18.0829 35.3289 18.6603 35.2976 19.2326 35.2414C19.4513 35.2201 19.6625 35.1777 19.8786 35.1476C20.2285 35.1001 20.5784 35.0564 20.9233 34.9876C21.1732 34.9376 21.4232 34.8627 21.6731 34.8064C21.973 34.7327 22.2754 34.6639 22.5704 34.5753C22.8316 34.4953 23.084 34.3979 23.3389 34.3079C23.5939 34.2179 23.8838 34.1204 24.1499 34.0104C24.4161 33.9005 24.6772 33.7717 24.9397 33.6481C25.1796 33.5344 25.4208 33.4269 25.6569 33.3019C25.9356 33.1532 26.2043 32.9895 26.4742 32.8271C26.6779 32.7021 26.8829 32.5884 27.0815 32.4522C27.374 32.2598 27.6539 32.0511 27.9338 31.8424C28.0962 31.7174 28.2611 31.6049 28.4199 31.4775C28.7161 31.24 28.9972 30.9876 29.2784 30.7277C29.3808 30.634 29.4908 30.5515 29.5921 30.454C29.602 30.4453 29.6058 30.4303 29.6158 30.4203C36.5846 23.7441 36.8216 12.6828 30.1454 5.71431ZM27.3367 29.1119C27.1093 29.3118 26.8743 29.5018 26.6369 29.6855C26.497 29.793 26.357 29.8991 26.2133 30.0016C25.9871 30.1654 25.7572 30.3203 25.5235 30.469C25.3535 30.5778 25.1798 30.6827 25.0048 30.7852C24.7849 30.9102 24.5612 31.0351 24.335 31.1601C24.135 31.2625 23.9313 31.3588 23.7265 31.4538C23.5216 31.5487 23.2953 31.6499 23.0741 31.7387C22.8529 31.8274 22.618 31.9111 22.3868 31.9886C22.1756 32.0611 21.9645 32.136 21.7507 32.1997C21.5008 32.2747 21.2397 32.3359 20.981 32.3985C20.7785 32.4459 20.5786 32.4997 20.3737 32.5397C20.0775 32.5972 19.7751 32.6372 19.4714 32.6784C19.299 32.7009 19.1278 32.7321 18.9541 32.7496C18.4742 32.7958 17.9881 32.8234 17.497 32.8234C17.0059 32.8234 16.5197 32.7959 16.0399 32.7496C15.8662 32.7321 15.695 32.7009 15.5225 32.6784C15.2188 32.6372 14.9164 32.5972 14.6202 32.5397C14.4153 32.4997 14.2153 32.446 14.0129 32.3985C13.7543 32.336 13.4968 32.2735 13.2432 32.1997C13.0295 32.136 12.8183 32.0611 12.6071 31.9886C12.3759 31.9086 12.1447 31.8273 11.9198 31.7387C11.6948 31.6499 11.4824 31.5525 11.2674 31.4538C11.0525 31.3551 10.8588 31.2626 10.6589 31.1601C10.4327 31.0426 10.209 30.9189 9.98907 30.7852C9.81415 30.6828 9.64039 30.5778 9.47045 30.469C9.2368 30.3203 9.00681 30.1654 8.78063 30.0016C8.6369 29.8992 8.49697 29.793 8.35697 29.6855C8.11952 29.5018 7.88462 29.3106 7.6572 29.1119C7.60221 29.0706 7.5522 29.0181 7.49853 28.9706C7.55439 24.7196 10.2853 20.966 14.3129 19.6045C16.3267 20.5625 18.6648 20.5625 20.6786 19.6045C24.706 20.966 27.437 24.7195 27.4929 28.9706C27.4404 29.0181 27.3904 29.0657 27.3367 29.1119ZM13.1381 10.3483C14.4912 7.94199 17.5387 7.08816 19.945 8.44121C22.3514 9.79427 23.2052 12.8418 21.8522 15.2482C21.4032 16.0466 20.7435 16.7063 19.945 17.1553C19.9388 17.1553 19.9313 17.1553 19.9238 17.1627C19.5924 17.3472 19.2422 17.4955 18.8791 17.6051C18.8141 17.6239 18.7541 17.6489 18.6854 17.6651C18.5604 17.6976 18.4292 17.7201 18.3005 17.7426C18.0581 17.785 17.8129 17.8096 17.567 17.8163H17.4245C17.1785 17.8096 16.9333 17.785 16.6909 17.7426C16.5659 17.7201 16.4335 17.6976 16.3061 17.6651C16.2398 17.6489 16.1811 17.6239 16.1124 17.6051C15.7493 17.4955 15.3991 17.3473 15.0677 17.1627L15.0452 17.1553C12.6389 15.8022 11.785 12.7547 13.1381 10.3483ZM29.7097 26.4927C28.9078 22.7523 26.4448 19.5813 23.0192 17.8789C25.8195 14.8284 25.6167 10.0854 22.5662 7.28505C19.5157 4.4847 14.7727 4.68753 11.9723 7.738C9.33975 10.6058 9.33975 15.0112 11.9723 17.8789C8.54669 19.5814 6.08367 22.7523 5.28175 26.4927C0.489864 19.7429 2.07701 10.3866 8.82676 5.59467C15.5765 0.802775 24.9329 2.38992 29.7248 9.13967C31.5261 11.677 32.493 14.7121 32.4915 17.8239C32.4915 20.9329 31.5188 23.964 29.7097 26.4927Z" fill="current"/>
</svg>
