<svg width="42" height="26" viewBox="0 0 42 26" fill="none" xmlns="http://www.w3.org/2000/svg">
<path d="M28 9.62724C28.3288 9.62724 28.5953 9.36073 28.5953 9.032V7.04787C28.5953 6.71914 28.3288 6.45264 28 6.45264C27.6712 6.45264 27.4048 6.71914 27.4048 7.04787V9.032C27.4048 9.36073 27.6712 9.62724 28 9.62724Z" fill="current"/>
<path d="M27.4048 13.8733C27.4048 14.202 27.6712 14.4685 28 14.4685C28.3288 14.4685 28.5953 14.202 28.5953 13.8733V12.0479C28.5953 11.7191 28.3288 11.4526 28 11.4526C27.6712 11.4526 27.4048 11.7191 27.4048 12.0479V13.8733Z" fill="current"/>
<path d="M27.4048 18.8728C27.4048 19.2015 27.6712 19.468 28 19.468C28.3288 19.468 28.5953 19.2015 28.5953 18.8728V16.968C28.5953 16.6393 28.3288 16.3728 28 16.3728C27.6712 16.3728 27.4048 16.6393 27.4048 16.968V18.8728Z" fill="current"/>
<path d="M39.9335 9.68127C40.6297 9.55508 41.135 8.94809 41.135 8.23794V2.68254C41.135 1.47905 40.1559 0.5 38.9525 0.5H30.143C29.2758 0.5 28.5022 0.905635 28.0001 1.53659C27.4981 0.905635 26.7244 0.5 25.8573 0.5H8.59536C8.26655 0.5 8.00012 0.766508 8.00012 1.09524C8.00012 1.42397 8.26655 1.69048 8.59536 1.69048H25.8573C26.7106 1.69048 27.4049 2.38476 27.4049 3.2381V4.18952C27.4049 4.51825 27.6713 4.78476 28.0001 4.78476C28.3289 4.78476 28.5954 4.51825 28.5954 4.18952V3.2381C28.5954 2.38476 29.2896 1.69048 30.143 1.69048H38.9525C39.4996 1.69048 39.9446 2.13548 39.9446 2.68254V8.23794C39.9446 8.37206 39.8506 8.48643 39.7212 8.50984C37.5512 8.90317 35.9763 10.7916 35.9763 13C35.9763 15.2084 37.5512 17.0968 39.7212 17.4902C39.8507 17.5136 39.9446 17.6279 39.9446 17.7621V20.1032C39.9446 20.4319 40.211 20.6984 40.5398 20.6984C40.8686 20.6984 41.135 20.4319 41.135 20.1032V17.7621C41.135 17.0519 40.6297 16.4449 39.9335 16.3187C38.3304 16.0282 37.1668 14.6324 37.1668 13C37.1668 11.3676 38.3304 9.97183 39.9335 9.68127Z" fill="current"/>
<path d="M40.5397 22.2857C40.2109 22.2857 39.9444 22.5522 39.9444 22.881V23.3175C39.9444 23.8645 39.4994 24.3095 38.9524 24.3095H30.1429C29.2895 24.3095 28.5952 23.6152 28.5952 22.7619C28.5952 22.5168 28.5952 21.9702 28.5952 21.7302C28.5952 21.4014 28.3288 21.1349 28 21.1349C27.6712 21.1349 27.4048 21.4014 27.4048 21.7302V22.7619C27.4048 23.6152 26.7105 24.3095 25.8571 24.3095H2.68254C2.13548 24.3095 1.69048 23.8645 1.69048 23.3175V17.7621C1.69048 17.628 1.78444 17.5136 1.91389 17.4902C4.08381 17.0968 5.65873 15.2084 5.65873 13C5.65873 10.7916 4.08381 8.90317 1.91389 8.50984C1.78437 8.48643 1.69048 8.37198 1.69048 8.23794V2.68254C1.69048 2.13548 2.13548 1.69048 2.68254 1.69048H5.81746C6.14627 1.69048 6.4127 1.42397 6.4127 1.09524C6.4127 0.766508 6.14627 0.5 5.81746 0.5H2.68254C1.47913 0.5 0.5 1.47905 0.5 2.68254V8.23794C0.5 8.94802 1.00532 9.55508 1.70159 9.68127C3.30468 9.97183 4.46825 11.3676 4.46825 13C4.46825 14.6324 3.30468 16.0282 1.70159 16.3187C1.00532 16.445 0.5 17.052 0.5 17.7621V23.3175C0.5 24.521 1.47913 25.5 2.68254 25.5H25.8571C26.7243 25.5 27.4979 25.0944 28 24.4634C28.5021 25.0944 29.2757 25.5 30.1429 25.5H38.9524C40.1558 25.5 41.1349 24.521 41.1349 23.3175V22.881C41.1349 22.5522 40.8685 22.2857 40.5397 22.2857Z" fill="current"/>
<path d="M9.07141 12.9998C9.07141 13.3285 9.33784 13.595 9.66665 13.595H23.0793C23.4082 13.595 23.6746 13.3285 23.6746 12.9998C23.6746 12.671 23.4082 12.4045 23.0793 12.4045H9.66665C9.33784 12.4045 9.07141 12.671 9.07141 12.9998Z" fill="current"/>
<path d="M9.66665 18.357H16.1349C16.4637 18.357 16.7301 18.0905 16.7301 17.7617C16.7301 17.433 16.4637 17.1665 16.1349 17.1665H9.66665C9.33784 17.1665 9.07141 17.433 9.07141 17.7617C9.07141 18.0905 9.33784 18.357 9.66665 18.357Z" fill="current"/>
<path d="M20.222 8.83305C20.5508 8.83305 20.8172 8.56655 20.8172 8.23782C20.8172 7.90909 20.5508 7.64258 20.222 7.64258H12.5236C12.1948 7.64258 11.9283 7.90909 11.9283 8.23782C11.9283 8.56655 12.1948 8.83305 12.5236 8.83305H20.222Z" fill="current"/>
<path d="M23.0792 17.1665H19.7062C19.3774 17.1665 19.111 17.433 19.111 17.7617C19.111 18.0905 19.3774 18.357 19.7062 18.357H23.0792C23.408 18.357 23.6745 18.0905 23.6745 17.7617C23.6745 17.433 23.408 17.1665 23.0792 17.1665Z" fill="current"/>
</svg>
