<svg width="29" height="26" viewBox="0 0 29 26" fill="none" xmlns="http://www.w3.org/2000/svg">
<path d="M14.2207 5.13359C14.3084 5.2939 14.4766 5.39358 14.6593 5.39358C14.842 5.39359 15.0102 5.29391 15.0979 5.13361C15.5457 4.31529 16.2983 3.2065 17.415 2.34286C18.5713 1.44862 19.8731 1 21.2965 1C25.2711 1 28.3186 4.24469 28.3186 8.65896C28.3186 11.0177 27.3786 13.0243 25.653 15.1065C23.9148 17.2039 21.4179 19.3339 18.3529 21.9459L18.6772 22.3264L18.3528 21.9459C17.3153 22.8301 16.1374 23.8339 14.9127 24.905L14.9125 24.9051C14.8428 24.9661 14.7531 25 14.6593 25C14.5655 25 14.4758 24.9661 14.4062 24.9051L14.4059 24.9049C13.1819 23.8345 12.0045 22.8312 10.968 21.9478L10.9664 21.9464L10.6421 22.327L10.9664 21.9464C7.90105 19.3342 5.40398 17.2041 3.66566 15.1065C1.94002 13.0243 1 11.0177 1 8.65896C1 4.24469 4.04747 1 8.02212 1C9.44553 1 10.7473 1.44862 11.9036 2.34286L12.2095 1.94735L11.9036 2.34286C13.0203 3.2065 13.7729 4.31524 14.2207 5.13359Z" stroke="black" stroke-linecap="round" stroke-linejoin="round"/>
</svg>
