<svg width="26" height="26" viewBox="0 0 26 26" fill="none" xmlns="http://www.w3.org/2000/svg">
<path d="M12.7598 0.5C19.6522 0.5 25.2598 6.10759 25.2598 13C25.2598 19.8924 19.6522 25.5 12.7598 25.5C5.86736 25.5 0.259766 19.8924 0.259766 13C0.259766 6.10759 5.86736 0.5 12.7598 0.5ZM12.7598 24.6228C19.1686 24.6228 24.3826 19.4089 24.3826 13C24.3826 6.59112 19.1686 1.37717 12.7598 1.37717C6.35088 1.37717 1.13694 6.59112 1.13694 13C1.13694 19.4089 6.35088 24.6228 12.7598 24.6228Z" fill="black"/>
<path d="M12.7595 10.1494C14.3314 10.1494 15.6104 11.4284 15.6104 13.0003C15.6104 14.5722 14.3314 15.8511 12.7595 15.8511C11.1876 15.8511 9.90864 14.5722 9.90864 13.0003C9.90864 11.4283 11.1876 10.1494 12.7595 10.1494ZM12.7595 14.974C13.8478 14.974 14.7332 14.0886 14.7332 13.0003C14.7332 11.9119 13.8478 11.0266 12.7595 11.0266C11.6711 11.0266 10.7858 11.9119 10.7858 13.0003C10.7858 14.0886 11.6711 14.974 12.7595 14.974Z" fill="black"/>
<path d="M12.76 8.39453C15.2994 8.39453 17.3652 10.4603 17.3652 12.9998C17.3652 15.5392 15.2994 17.6051 12.76 17.6051C10.2205 17.6051 8.15471 15.5392 8.15471 12.9998C8.15471 10.4603 10.2205 8.39453 12.76 8.39453ZM12.76 16.7279C14.8154 16.7279 16.4881 15.0553 16.4881 12.9998C16.4881 10.9443 14.8154 9.2717 12.76 9.2717C10.7045 9.2717 9.03188 10.9443 9.03188 12.9998C9.03188 15.0553 10.7045 16.7279 12.76 16.7279Z" fill="black"/>
<path d="M12.7603 10.1484C14.3323 10.1484 15.6112 11.4274 15.6112 12.9993C15.6112 14.5712 14.3322 15.8502 12.7603 15.8502C11.1884 15.8502 9.90949 14.5712 9.90949 12.9993C9.90949 11.4273 11.1884 10.1484 12.7603 10.1484ZM12.7603 14.973C13.8487 14.973 14.734 14.0876 14.734 12.9993C14.734 11.9109 13.8487 11.0256 12.7603 11.0256C11.672 11.0256 10.7867 11.9109 10.7867 12.9993C10.7867 14.0876 11.672 14.973 12.7603 14.973Z" fill="black"/>
<path d="M17.5304 4.25917C17.6545 4.05094 17.9236 3.98239 18.1317 4.10664C20.341 5.42198 21.9513 7.49975 22.6663 9.95741C22.7339 10.19 22.6003 10.4333 22.3677 10.5009C22.327 10.5129 22.2855 10.5185 22.2453 10.5185C22.055 10.5185 21.8799 10.3942 21.8244 10.2024C21.1716 7.95893 19.7007 6.06144 17.683 4.86046C17.4747 4.73665 17.4066 4.46726 17.5304 4.25917Z" fill="black"/>
</svg>
