<svg width="36" height="26" viewBox="0 0 36 26" fill="none" xmlns="http://www.w3.org/2000/svg">
<path d="M17.9684 0.500135L17.9195 0.5C17.9188 0.5 17.9183 0.5 17.9176 0.5C17.5453 0.5 17.243 0.801284 17.2419 1.17385C17.2419 1.17439 17.2419 1.17493 17.2419 1.17547C17.2418 1.54791 17.5432 1.85034 17.9158 1.85135L17.9648 1.85149C17.9654 1.85149 17.966 1.85149 17.9666 1.85149C18.3389 1.85149 18.6413 1.5502 18.6423 1.17764C18.6423 1.17709 18.6423 1.17655 18.6423 1.17601C18.6424 0.803581 18.3411 0.501149 17.9684 0.500135Z" fill="black"/>
<path d="M34.3778 4.69632C33.9341 3.00949 32.6254 1.68105 30.9628 1.22943C29.2483 0.762465 24.4682 0.590506 20.7601 0.528547C20.3891 0.523479 20.0794 0.819763 20.0732 1.19287C20.067 1.56598 20.3644 1.87355 20.7375 1.87976C25.8699 1.96557 29.3752 2.19767 30.6081 2.53341C31.8061 2.85882 32.7498 3.81929 33.071 5.04044C33.7351 7.55956 33.7433 12.9456 33.7433 12.9997C33.7433 13.0538 33.7351 18.4399 33.0709 20.9594C32.7498 22.1802 31.8061 23.1406 30.6077 23.4662C28.1315 24.1405 17.9003 24.1484 17.7973 24.1484C17.6943 24.1484 7.46311 24.1404 4.98649 23.4661C3.78851 23.1406 2.8448 22.1802 2.52365 20.959C1.85946 18.4399 1.85135 13.0538 1.85135 12.9998C1.85135 12.9456 1.85946 7.55956 2.52372 5.0401C2.8448 3.81936 3.78851 2.85889 4.98689 2.53334C6.24683 2.19024 9.85575 1.95652 15.149 1.8751C15.5221 1.86943 15.8199 1.56226 15.8142 1.18916C15.8084 0.816047 15.5003 0.520709 15.1282 0.523952C11.3059 0.582668 6.3823 0.752803 4.63223 1.22936C2.96919 1.68105 1.66047 3.00956 1.21696 4.69598C0.508176 7.38436 0.5 12.7717 0.5 12.9998C0.5 13.2278 0.508176 18.6152 1.21682 21.3031C1.66047 22.99 2.96919 24.3184 4.63183 24.77C7.28102 25.4915 17.3692 25.4998 17.7973 25.4998C18.2254 25.4998 28.3136 25.4915 30.9624 24.7702C32.6254 24.3185 33.9341 22.99 34.3776 21.3036C35.0864 18.6152 35.0946 13.2278 35.0946 12.9998C35.0946 12.7717 35.0864 7.38436 34.3778 4.69632Z" fill="black"/>
<path d="M4.41908 11.2109C4.04591 11.2109 3.74341 11.5134 3.74341 11.8866V17.3934C3.74341 17.7665 4.04591 18.069 4.41908 18.069C4.79226 18.069 5.09476 17.7665 5.09476 17.3934V11.8866C5.09476 11.5134 4.79226 11.2109 4.41908 11.2109Z" fill="black"/>
<path d="M4.41908 8.13672C4.04591 8.13672 3.74341 8.43922 3.74341 8.81239V8.82037C3.74341 9.19354 4.04591 9.49604 4.41908 9.49604C4.79226 9.49604 5.09476 9.19354 5.09476 8.82037V8.81239C5.09476 8.43922 4.79226 8.13672 4.41908 8.13672Z" fill="black"/>
<path d="M23.2774 12.5185L14.899 7.65366C14.69 7.53224 14.4321 7.53177 14.2226 7.65238C14.0132 7.77298 13.884 7.99629 13.884 8.23798V17.9677C13.884 18.2095 14.0132 18.4327 14.2226 18.5533C14.3269 18.6134 14.4433 18.6434 14.5597 18.6434C14.6769 18.6434 14.7942 18.613 14.899 18.552L23.2774 13.6872C23.4857 13.5662 23.6138 13.3437 23.6138 13.1028C23.6138 12.862 23.4857 12.6395 23.2774 12.5185ZM15.2354 16.7941V9.41163L21.5925 13.1028L15.2354 16.7941Z" fill="black"/>
</svg>
